<svg xmlns="http://www.w3.org/2000/svg" xmlns:svg="http://www.w3.org/2000/svg" xmlns:xlink="http://www.w3.org/1999/xlink" id="svg2" x="0" y="0" version="1.1" viewBox="0 0 151.9 170.5" xml:space="preserve" style="enable-background:new 0 0 151.9 170.5"><style type="text/css">.st0{fill:#80aabd}.st1{fill:#4a6f86}.st2{fill:none;stroke:#201600;stroke-width:2;stroke-miterlimit:10}.st3{opacity:.43}.st4{fill:#f0d6b7}.st5{fill:#6d6b6d}.st6{fill:#dcd9d8}.st7{fill:#f7e4cd}.st8{fill:#231f20}.st10,.st9{fill:#fff}.st10{stroke:#201600;stroke-width:.75;stroke-linecap:round;stroke-linejoin:round;stroke-miterlimit:10}.st11{fill:#dbd7d6}.st12{fill:#4c4845}.st13{fill:#383838}.st14{fill:#201600}.st15{fill:#383838;stroke:#201600;stroke-width:2;stroke-miterlimit:10}.st16{fill:#cfcda6}.st17{fill:#b4b095}.st18,.st19{stroke:#201600;stroke-width:2;stroke-miterlimit:10}.st18{fill:none;stroke-linecap:round;stroke-linejoin:round}.st19{fill:#d33833}.st20{fill:#9b9898}.st21{fill:#1b1819}.st22,.st23{fill:#9b9898;stroke:#1b1819;stroke-width:2;stroke-miterlimit:10}.st23{opacity:0;fill:none;stroke:#201600;stroke-linecap:round;stroke-linejoin:round}</style><switch><g><g><path d="M38.9,109.6c5.8,17.9-12.3,32.3-12.3,32.3s17.3,21.3,23.4,21.3c-4.5-10.4,6-17.8,4-28.9 c-1.9-10.7-6.5-19.2-10.8-29.2C41.8,106.3,38.3,107.7,38.9,109.6z" class="st0"/><path d="M38.9,109.6c5.8,17.9-12.3,32.3-12.3,32.3s9,10.3,13.1,14.3c-2-11.1-4.6-7.5-0.9-21.6 c2.8-10.5,6.1-17.7,1.8-27.7C39.3,108.2,38.3,107.7,38.9,109.6z" class="st1"/><path d="M38.9,109.6c5.8,17.9-12.3,32.3-12.3,32.3s17.3,21.3,23.4,21.3c-4.5-10.4,6-17.8,4-28.9 c-1.9-10.7-6.5-19.2-10.8-29.2C41.8,106.3,38.3,107.7,38.9,109.6z" class="st2"/></g><g id="dgJa4l_1_" class="st3"><image style="overflow:visible" id="dgJa4l" width="341" height="148" transform="matrix(-0.3517 9.170631e-02 9.170631e-02 0.3517 -227.524 38.0912)" xlink:href="DACDD69093343012.jpg"/></g><path id="path28" d="M101.6,98.3l-7.6,5.3l-11.2,4.1L72.4,104l-4.2-1.1l-3.9-3.8 l-4.5-4.9l-3.6-10.1l-0.8-2.2l-4.7-1.6l-2.8-4.5l-2-6.5l2.2-5.7l5.1-1.8l4.1,2l2,4.3l2.4-0.4l0.8-1l-0.8-4.5l-0.2-5.7l1.2-7.9 l0-4.5l3.6-5.8l6.3-4.5L83.6,29l12.2,1.8l10.7,7.7l4.9,7.9l3.2,5.7l0.8,14.2L113,78.6l-4.3,10.9l-4.1,5.7L101.6,98.3z" class="st4"/><path id="path32" d="M48,63.6l5.1-1.8l4.1,2l2,4.3l2.4-0.4l0.6-2.4l-1.2-4.5 l1.2-10.9l-1-5.9l3.6-4.1l7.7-6.1l-2.2-3l-10.9,5.3L55,39.7l-2.6,5.5l-4,5.3l-1.2,6.3L48,63.6" class="st5"/><path id="path34" d="M56.1,45c0,0,3-7.3,14.8-10.9s0.6-2.6,0.6-2.6l-12.8,4.9 l-4.9,4.9l-2.2,4L56.1,45" class="st6"/><path id="path36" d="M50.2,62.2c0,0-4.1-13.8,11.7-15.8L61.3,44l-10.9,2.6 l-3.2,10.3l0.8,6.7L50.2,62.2" class="st6"/><path id="path38" d="M56.5,80.5l2.6-2.5c0,0,1.2,0.1,1.4,1.5 c0.2,1.4,3,16.6,11.5,23.3c0.8,0.6-8.5-3.7-8.5-3.7l-6.3-9.9L56.5,80.5z" class="st7"/><path id="path40" d="M92.9,76.8c0,0,0.5-6,2.1-5.5s1.6,2.1,1.6,2.1 S92.7,75.9,92.9,76.8" class="st7"/><path id="path42" d="M109.3,54.9c0,0-3.3,0.7-3.6,3.6c-0.3,2.9,3.6,0.6,4.1,0.4" class="st7"/><path id="path44" d="M85.4,55.1c0,0-4.3,0.6-4.3,3.4c0,2.8,4.9,2.6,6.3,1.4" class="st7"/><path id="path46" d="M58.5,67.9c0,0-7.5-4.5-8.3-0.2c-0.8,4.3-2.6,7.5,1.2,12 L48.8,79l-2.4-6.1l-0.8-5.9l4.5-4.7l5.1,0.4l3,2.4L58.5,67.9" class="st7"/><path id="path48" d="M62.1,55.5c0,0,3.4-17.4,20.3-20.7c14-2.8,21.3,0.6,24.1,3.8 c0,0-12.4-14.8-24.3-10.3C70.4,32.7,61.7,41,61.9,46.4C62.2,55.5,62.1,55.5,62.1,55.5" class="st7"/><path id="path50" d="M107.9,40.4c0,0-5.7-0.2-5.9,4.9c0,0,0,0.8,0.4,1.6 c0,0,4.5-5.1,7.3-2.4" class="st7"/><path id="path52" d="M82.8,47.5c0,0-1-7.9-7.7-3.3c-4.3,3-4,7.1-3.2,7.9 c0.8,0.8,0.6,2.4,1.2,1.3c0.6-1.1,0.4-4.6,2.6-5.6C77.9,46.8,81.4,45.7,82.8,47.5" class="st7"/><path id="path82" d="M66,101.9c0,0,6.1,2.6,8.1,2l0.2,2.4l-5.5-1.2l-3.4-2.4 L66,101.9" class="st6"/><path id="path100" d="M82.8,47.5c-5.4-1.3-8.1,2.3-9.7,5.9 c-1.5-0.4-0.9-2.3-0.5-3.3c1-2.6,4.8-6.2,8-5.7C82,44.6,83.8,45.8,82.8,47.5" class="st8"/><path id="path102" d="M109,53.6c0.1,0,0.2,0,0.3,0c1.2,2.5,2.3,5.2,3.8,7.4 c-1,2.4-7.8,4.5-7.7,0.2c1.5-0.6,4-0.1,5.3-0.9C110,58.3,108.9,56.5,109,53.6" class="st8"/><path id="path104" d="M85.6,53.7c1.2,2.1,1.5,4.3,3.2,5.9c0.7,0.7,2.2,1.6,1.5,3.6 c-0.2,0.5-1.4,1.5-2.1,1.7c-2.6,0.8-8.5,0.2-6.5-3c2.1,0.1,5,1.4,6.6-0.2C86.9,59.8,84.8,56,85.6,53.7" class="st8"/><path id="path106" d="M108.1,75.2c-3.9,2.5-8.2,5.2-14.5,4.6 c-1.4-1.2-1.9-3.8-0.6-5.5c0.7,1.2,0.3,3.3,2.2,3.7c3.6,0.6,7.8-2.2,10.4-3.2c1.6-2.7-0.1-3.7-1.6-5.4c-3-3.6-6.9-8-6.8-13.3 c1.2-0.9,1.3,1.3,1.5,1.7c1.5,3.6,5.4,8.2,8.3,11.3c0.7,0.8,1.8,1.5,2,2C109.3,72.5,107.9,74.2,108.1,75.2" class="st8"/><path id="path108" d="M57.2,72.6c-1.2-0.7-1.5-3.7-2.9-3.8c-2-0.1-1.7,3.9-1.7,6.3 c-1.4-1.3-1.6-5.2-0.6-7.2c-1.2-0.6-1.7,0.6-2.3,1.1C50.5,62.9,58.5,66.2,57.2,72.6" class="st8"/><path id="path110" d="M110.5,77.7c-1.8,3.4-4.3,7.2-9.6,7.3c-0.1-1.1-0.2-2.8,0-3.5 C105,81.2,107.5,79.1,110.5,77.7" class="st8"/><path id="path112" d="M85.3,79.9c3.4,1.8,9.5,2,14.1,1.8c0.2,1,0.2,2.2,0.2,3.5 C93.8,85.5,86.8,84.1,85.3,79.9" class="st8"/><path id="path114" d="M84.6,83.2c2.3,5.8,10.3,5.2,17.1,5c-0.3,0.8-0.9,1.7-1.7,2 c-2.2,0.9-8.1,1.5-11.1,0c-1.9-1-3.1-3.3-4.2-4.6C84.2,84.9,81.7,83.2,84.6,83.2" class="st8"/><path d="M99.6,150.2c-14.8,4.7-31.2,7-46.1,2c-4.3-1.4-7-1-7.6-5.1c-0.6-3.7,0.3-7.6-0.3-11.4 c-0.7-4.1-2-8.1-2.9-12.1c-0.8-3.7-3-9-3-12.8c0-3.3,4.5-5.7,7.5-7.9c2.5-1.8,7.9-6.6,10.8-6.8c2.4-0.2,5.1,3.4,7.4,4.8 c3.3,1.9,7.6,4,11.3,4.9c7.9,1.9,15.7-0.7,22-5.3c2-1.4,6.8-6.9,8.9-6.7c2.5,0.2,7.7,5,9.2,7.1c4.2,6.2-3.4,19.3-6.2,25.4 C107,134.3,103.3,142.2,99.6,150.2z" class="st9"/><path d="M55.6,113.4c4.5-0.2,10.5,4.6,10.3,8.8c-0.2,3.7-0.3,7.4-0.5,11.1c8.9-0.7,17.2-0.9,26.1-0.5 c-0.2-0.9,0.2-1.9,0-2.8c4.4,0.9,8.5,1.3,13,1.7c1,0.1,4.4,0.8,5.2,0.2c1.2-0.9,8.7-28.7,8.7-28.7l-11.1-9.8c0,0-9.3,8-13.1,10.1 c-7.9,4.3-15.9,2.7-24.6-0.4c-3.4-1.2-9.9-7.9-11-7.4c-0.7,0.3-16.9,11.8-17.9,12.5C41,108.6,42.7,114.1,55.6,113.4z" class="st0"/><path d="M89.8,127.5c-2.2,0-4.5,0.2-6.6,0c-0.6-0.1-1.4-0.3-1.8-0.8c-0.2-0.3-0.3-0.9-0.2-1.3c0.1-0.5,0.5-0.5,1-0.8 c-0.9-0.3-1.9-0.7-2.6,0.2c-0.8,1-0.4,1.9,0.3,2.7c-1.5-0.3-2.3,0.4-3.4,1.3c1,0.7,2.1,1.5,3.4,1.4c-0.7,0.6-1.1,1.6-0.4,2.4 c0.7,0.8,1.9,0.5,2.7,0.1c-0.8-0.3-1.6-1.1-0.9-1.9c0.6-0.6,1.9-0.6,2.6-0.6c1.9,0,3.7-0.1,5.6-0.3c-1,0.7-1.7,1-3,0.8 c-0.1,0.6,0.3,1,0.8,1.1c-0.9,0.6,5.2,0.8,4,0.3c2.1,0,6.1-2.3,8.2-2.3c0.7,0,1.2,0,1.7,0.5c0.9,0.9,0.5,1.7-0.6,2.1 c0.6,0.5,2.1,0.7,2.7,0.1c0.7-0.6,0.3-2.2-0.4-2.7c1.4,0,2.3-0.4,3.2-1.5c-1-0.8-1.8-1.1-3.1-1.2c0.5-0.8,0.8-1.7,0.2-2.5 c-0.6-0.9-1.6-0.6-2.5-0.2c0.9,0.2,0.8,1.5,0.3,2c-0.5,0.7-1.4,0.6-2.2,0.6c-1.8,0.1-3.7,0-5.5,0c0.8-0.7,1.8-1.2,2.9-0.7 c0-0.6-0.4-1.1-1-1.1c1-0.5,1.2-1.4,1.5-2.4c-1.2,0.3-1.6,0.5-2.3,1.5c-0.2-0.7-0.4-0.8-1-1.2c-0.1,1.2-0.5,2.1-0.9,3.2 c0-1.9,0-3.9,0-5.8c0-0.8,0-1.6,0.7-2.1c0.9-0.7,1.4-0.3,2,0.4c0.2-0.8,0.4-1.8-0.3-2.5c-0.8-0.7-1.6-0.2-2.4,0.3 c-0.2-1.3-0.6-2.2-1.5-3.2c-0.9,0.9-1.3,2-1.3,3.3c-1.9-1.5-3.6,0.1-2.7,2.3c0.1-0.9,1.4-1,2-0.5c0.7,0.5,0.6,1.6,0.6,2.3 c0,1.9,0,3.8,0.2,5.7c-0.9-1-1.1-1.8-0.9-3.2c-0.6,0-1,0.6-1,1.2c-0.7-0.9-1.3-1.2-2.3-1.7c-0.1,1.2,0.6,1.8,1.5,2.4 c-0.8,0.1-1.2,0.2-1.3,1.1C87.6,126.3,88.7,126.9,89.8,127.5z" class="st10"/><path d="M92.7,142.9c-3.7,2.5-2.6,3.2-11.3,3.9c1.3,2.1,6.3,2,4.4,3.3c-3.7,2.6-16.2,2.9-23.6,3.7 c5.7,0.7,11.7,1.8,17.5,1.1c5.8-0.6,11.4-2.9,16.9-4.9C94.9,147.4,94.4,145.7,92.7,142.9z" class="st11"/><g><path id="path72" d="M95.5,155.6l16.8-9.4l16.1,0l2.2-6.7l-4-11.7l-4.5-0.6 l-6.3,2l-6.1,3l-18.4-1.9L95.5,155.6z" class="st12"/><path id="path74" d="M94.4,150c0,0,11.2-5.8,17.5-5.9l-2.2-12l2.6-1 c0,0,1.8,10.3,1.8,11.5c0,0,11.1,0.6,12,0.6c0,0,2.4-4.5,1.8-9.3l2.2,6.3l0.2,3.6l-3.2,4.7l-3.6,0.8l-5.9-0.2l-2.7-3.1l-6.1,1.5 l-12.6,8.1L94.4,150z" class="st13"/><path id="path118" d="M122.5,132.3c-3.1,0.6-5.2,3.6-8.2,3.4 C115.9,133.4,118.8,132.4,122.5,132.3" class="st14"/><path id="path120" d="M123.8,137.1c-2.5,0.3-5.4,0.7-7.9,0.5 C117.1,135.7,121.7,136.3,123.8,137.1" class="st14"/><path id="path122" d="M124.7,141.2c-2.8,0.1-6.3,0-8.9-0.2 C117.3,139.3,122.9,140.3,124.7,141.2" class="st14"/></g><path id="path56_1_" d="M65.7,117.3c0,0,2.2,1.8,2.7,2.9c1.2,2.8,0.6,12.5,0.6,12.5 h-3.2c0,0-0.4-8.4-0.4-9.4c0-1,0.4-4.6,0.4-4.6L65.7,117.3z" class="st1"/><path d="M40.9,109.2c0,2.1,1.7,4.2,4.4,5c4.7,1.5,17.7,0.8,19,10.7c1.1,8.4-4.3,3-4.3,3.9c-0.1,3.5,2.6,3.9,0.9,4.3 c-2.8,0.8-6.1,2.7-2.8,3c6.5,0.6,15.6,0.2,22.6,0.2c2.6,0,3.1,0.9,2.9,1.7c-0.1,0.5,0.4,1,0.9,0.8c1.9-0.7,4.9-1.2,7,1.2l0.1-7.2 c-8.7-0.1-17.4,0.5-26.1,0.5c0.3-5.7,2.7-14.5-2.9-18.2C57.5,111.8,40.9,115.3,40.9,109.2z" class="st11"/><path d="M88.7,105.9c2.5,3.2,6.4,5.2,11,6c1.1-3.4,3.3-11.9,5.9-13.2c4-2,9.8,6.3,11.5,9.3c1.3-4.8,1.4-6.2-2.3-9.7 c-2.4-2.2-5-4.8-8.1-4c-3,0.7-5.6,4.2-7.8,6.1C95.6,103.2,92.5,104.4,88.7,105.9z" class="st1"/><path d="M44.3,112c1.3-2.7,6.1-6.7,8.7-8.1c4.2-2.1,5-2.8,5-2.8s0.5,9.8,17.9,16.5c4.3-5.2,0.9-7.6-3.1-12.1 c-4.1-4.6-9.9-5.6-13.2-11.5c-6,4.2-13.1,11-20,13.5C41,108.8,42.9,110.8,44.3,112z" class="st1"/><path id="path130" d="M109.3,132.9c-1-0.2-14.7-0.6-16.9-1.8 c0.4,4.4,1.8,18.2,4.1,22.9c1.5,0,13.8-7.7,14.8-8.5C111.4,141.5,109.3,132.9,109.3,132.9z M124.7,147.8c3.1-0.7,5-4.5,4.2-8.4 c-0.6-2.6-1.6-7.5-2.7-9.2c-0.8-1.2-3-2.8-4.8-1.7c-2.9,1.8-7.9,2.4-10,4.6c1.1,3.5,1.3,7.7,1.8,12.1c3.6,0.2,8-0.4,11,0.9 c-2.1,0.7-4.8,0.7-6.6,1.7C119,148.5,122.5,148.4,124.7,147.8L124.7,147.8z M108.8,130.4c0.5,0.1,4.8-13.4,7.3-21.6 c0.3-1.1,0.8-3.5,0.7-4.4c-0.2-1.7-2.6-4.1-3.8-5.1c-2.2-2-3.6-2.7-5.9-4.6c-0.9,1.4-10,11.6-23.9,13c-15,0.2-23.8-10.3-24.3-10.1 c-6.6,2.6-12.7,7.1-18.2,11.3c5.2,11.2,7.6,26.2,7.9,39.5c13,8.5,39.1,5.7,44.1,1.9c-0.9-6.7-2.2-10-2.7-16.2 c-3.3,0.1-26.4,0.8-31.4,1.2c0-2.3,3.7-0.5,4-2c0.2-1.2-2.4-1.8-1.8-3.6c1.5,0.5,2.5,2.3,4.1,2.8c1.5-3.2-0.2-9.4-0.1-12 c0-0.5,0.3-2.9,1.4-2.5c1,0.4,0.7,5.9,0.8,8.4c0.1,2.3-0.3,4.6-0.1,6.2c6.1,0.9,23.4-0.5,23.4-0.5s0-1.8,0-2.8 C90.3,129.1,106.1,131.5,108.8,130.4z M51,49.5c-2.6,2.9-2.1,8.3-1.7,12.1c4.7-3,11,0.2,10.9,5.3c2.3-0.1,0.8-2.8,0.4-4.6 c-1.3-5.8,2.2-12.1,0.2-17.4C56.8,45.2,53.4,46.8,51,49.5L51,49.5z M69.7,32.8c-5.9,1.7-13.5,6-15.9,11.3c1.9-0.3,3.2-1.2,5-1.3 c0.7,0,1.6,0.3,2.4,0.1c1.6-0.4,3-4,4.2-5.3c1.2-1.3,2.6-1.9,3.6-3.1c0.6-0.3,1.5-0.3,1.6-1.2C70.3,32.9,70,32.7,69.7,32.8z M100.5,34.4c-6.1-3.5-16.5-6.1-23-2.8c-5.3,2.6-12.4,7-14.8,12.5c2.3,5.3-0.7,10.2-0.9,15.6c-0.1,2.9,1.4,5.4,1.5,8.5 c-0.8,1.3-3.1,1.4-4.8,1.3c-0.6-2.8-1.5-5.9-4.4-6.2c-4-0.4-7,2.9-7.2,6.4c-0.2,4.1,3.1,10.9,7.9,10.4c1.8-0.2,2.3-2,4.3-2 c1.1,2.2-1.7,2.8-2,4.4c-0.1,0.4,0.2,2,0.4,2.7c0.9,3.6,2.8,8.2,4.7,10.9c2.1,4.1,12.1,8.1,17.2,8.8c5.1,0.7,15.5-1.4,18.1-5.2 c-14.5,4-21.2-3.3-23.2-5.5c-2.3-2.6-5.1-6.2-5.2-9.5c4.4,6.1,8,11.4,15.9,14c6,2,13.1-0.9,17.7-4.2c1.9-1.4,3.1-3.5,4.4-5.5 c5.1-7.3,7.5-17.8,7-28c-0.2-4.2-0.2-8.4-1.6-11.2c-1.5-2.9-6.4-5.6-9.3-2.9c-0.5-2.9,2.4-4.6,5.9-3.6 C106.6,40.2,104,36.4,100.5,34.4L100.5,34.4z M111.9,128.9c4.8-2.4,13.7-6.4,16.8,0c1.1,2.4,2.4,6.4,3,8.8 c0.8,3.4-0.9,10.7-4.4,11.8c-3.1,1-6.8,1-10.6,0.2c-0.4-0.4-1-1.8-1.5-2.4c-0.9-1.1-1.7-0.9-2.6-0.5c-3.2,1.4-15.3,9.6-16.5,10 c-0.9,0.2-2.4-4.8-2.4-4.8s-12.8,8.1-37.8,1.9c-1.7-0.8-9.3-3.1-9.9-4.5c-0.6-1.3-0.4-3.9-0.5-6.3c-0.4-6.1-0.7-12.1-2.4-18.4 c-0.7-2.8-2-5.3-2.9-8c-0.8-2.5-1.8-4.4-2.1-6.9c-0.6-3.7,2.5-5.2,4.7-6.8c3.5-2.5,6.2-3.9,10-6.1c1.1-0.7,4.5-2.4,4.9-3.1 c0.8-1.5-1.3-3.7-1.9-4.9c-0.9-1.9-1.3-3.5-1.5-5.4c-3.2-0.5-5.5-2.4-7-4.5c-2.4-3.5-4-10-2-14.9c0.2-0.4,1-1.2,1.1-1.7 c0.2-1.2-0.4-2.7-0.5-4c-0.2-6.4,1.1-11.9,5.4-13.9c1.8-7,8-9.3,13.9-12.8c2.2-1.3,4.6-2.1,7.2-3c9-3.3,22.8-2.7,30.3,3 c3.2,2.4,8.2,7.5,10.1,11.1c4.8,9.7,4.4,25.9,1.1,37.6c-0.5,1.6-1.1,3.9-2,5.8c-0.6,1.3-2.6,4-2.4,5.2c0.2,1.2,4.5,4.4,5.4,5.3 c1.6,1.6,4.8,3.7,5,5.7c0.3,2.1-0.9,5-1.6,7.1C116.2,116.5,114.2,122.8,111.9,128.9" class="st14"/><path id="path132" d="M79.9,81.4c0.3-0.3,1.7-0.9,3.7,0.1c0,0-2.4,0.4-2.2,4.3 l-1-0.2C80.4,85.7,79.4,82.1,79.9,81.4" class="st7"/><g><path d="M103.3,22.3c-2.3-3.5-4.5-6.7-7.4-9.7c-2.6-2.7-5.4-5.9-9.3-5.8c-8,0.1-15.2,4-22.3,7.3 c2.7,3.4,5.4,6.7,8.1,10.1c1.9,2.3,3.7,4.7,5.6,7c0.4,0.5,1.5,2.5,2.1,2.6c0.8,0.2,3-1.5,3.7-1.8c2.7-1.3,5.5-2.7,8.2-4 C95.8,26,99.5,24.2,103.3,22.3z" class="st15"/><path d="M52.8,6.6c3.3,2.9,6.1,5.7,7.6,9.9c-2.2-1.9-4.5-3.3-7-4.9c-2.9-1.9-4.5-2.7-7.9-3.4C39.9,7,34.7,8.1,29.1,9 c5.7,0.1,9.8,0.6,14,4.6c-4.4-0.7-8.5-1.1-13-0.4c-4.1,0.6-8.1,2.6-12,4c4.8-0.1,7.9,0.2,12,2.6c-6.9,1.7-12.6,4.3-17.1,10 c-4.4,5.6-6.4,11.7-8.5,18.4c1.2-1.6,2.3-2.8,4.4-3.3c0.7,2.7,0.3,5.4,0.8,8.1c0.6,3.4,2,5.9,3.9,8.7c2.3-5.3,6.1-9.9,11.7-11.9 c7.9-2.8,15.9-5.4,23.8-8.1c8.7-3,17.4-5.9,26.1-8.9c2.5-0.8,3.3-0.8,2.6-3.9c-0.7-3.2-3-6.2-5.1-8.7c-2.8-3.3-5.6-6.4-9-9.2 C60.6,8.5,56.7,7.7,52.8,6.6z" class="st9"/><path d="M34,17.5c2.7,0.6,4.3,1.3,6.4,3.1C25.9,20.9,12.2,31.9,7.7,45.3C8,45.1,8.6,45.1,9,44.9 c0.7,2.7,0.3,5.4,0.8,8.1c0.7,3.4,2.1,5.7,3.9,8.7c0.9-2.2,1.8-4.1,3.4-5.9c1.2-1.4,3-4,4.4-5c2.3-1.6,6.2-2.2,8.8-3.1 c12.8-4.5,25.6-9,38.4-13.5c3.5-1.2,6.9-2.4,10.4-3.7c-4.4-5.1-9-9.3-14.2-13.6c0.2,1.3,0.6,3.4-0.3,4.6 c-4.9-4-10.2-6.1-16.2-8.1c1.6,1.5,2.7,2.1,3.2,4.2C45.7,16,39.8,15.8,34,17.5z" class="st16"/><path d="M81.2,29.1c3.6-1.6,7.4-3.2,10.8-5.2c2.9-1.8,5.8-3.9,5.8-3.9s-5.2-7.8-7.8-9.3c-4.6-2.6-13.9,3.2-17.5,5.5 C76.6,20.2,79.7,23.5,81.2,29.1z" class="st12"/><path d="M19.1,30.2c1.6,0.4,3.3,0.7,4.6,1.6c1.2,0.8,2.1,3.7,3.1,4.1c1,0.4,4.3-0.8,5.4-1.1c2.6-0.5,5.1-1,7.7-1.5 c7-1.4,14.5-1.1,21.6-1.4c4-0.2,8.1-0.3,12.1-0.5c-2.7-3.8-5.8-6.3-9.9-8.4c1,1.3,1.9,2.3,1.2,4c-6.7-3.4-13.2-4.2-20.6-4.8 c2.2,1.3,3.7,1.8,4.6,4.3C38.1,24.7,29.2,26.9,19.1,30.2z" class="st17"/><path d="M52.8,6.8c4.3,0.6,6.1,5.7,7.6,9.9c-2.2-1.9-13.9-14.3-31.3-7.5c5.7,0.1,9.8,0.6,14,4.6 c-4.4-0.7-16.5-4.2-25,3.6c4.8-0.1,7.9,0.2,12,2.6c-6.9,1.7-21.9,3.6-25.6,28.4c1.2-1.6,2.3-2.8,4.4-3.3c0.7,2.7,0.3,5.4,0.8,8.1 c0.6,3.4,2,5.9,3.9,8.7C16,56.6,19.8,52,25.4,50c7.9-2.8,15.9-5.4,23.8-8.1c8.7-3,17.4-5.9,26.1-8.9c2.5-0.8,4.3-1.7,4.3-1.7 S73.5,9.5,52.8,6.8z" class="st18"/><path d="M12.7,43.3c5.7,7.8,11.5,16,20.6,19.3C36.9,64,43.1,66,47,65.4c2.2-0.3,5.1-2.1,7-3.1 c2.2-1.1,4.2-2.7,6.4-3.7c4.3-2,9-3.4,13.3-5.4c4.7-2.1,9.6-3.7,14.5-5.4c8.9-3,18.6-3.2,27.8-4.7c4.6-0.7,8.8-1.4,13-3.4 c5.1-2.3,8.1-5.6,10.7-10.5c2.3-4.3,1.6-9.4-1.9-13c-3-3.1-8.5-3.8-12.7-3.7c-8.8,0.2-16.9,5.7-24.6,9.5 c-5.5,2.7-11.1,5.3-16.7,8c-2.2,1-2.6,1.2-5,1c-2.2-0.2-4.4-0.4-6.5-0.5c-9.6-0.4-19.4-0.4-28.9,1c-9.1,1.4-19.6,3.6-27,9.1 C14.6,42.1,14.7,42,12.7,43.3z" class="st12"/><path d="M105.3,26.9c7.5-1.4,19.8-1.5,24.2,6c-9.1,1.2-18,1.5-27.1,0.8C103.3,31.5,104.3,29.2,105.3,26.9z" class="st13"/><path d="M30.1,37.7c0.2,10,14.8,10,22.1,10.3c8.7,0.4,17.5-0.2,26.2-0.8c5.5-0.4,11-0.7,16.5-1.1 c-5.7,1.4-11.3,3-16.7,5.3c-5.8,2.5-12.1,4.5-17.8,7.2c-2.6,1.3-5,3.1-7.7,4.3c-1.7,0.7-3.8,2.1-5.5,2.4c-1.3,0.2-3-0.3-4.4-0.4 c-5.9-0.8-11.6-2.7-16.7-5.9c-6.1-3.8-9.2-9.7-13.4-15.5c3.1-2.2,4-3.3,7.3-5.1c3.6-2,7.3-2.8,11.1-4.2 C30.8,35.4,30.5,36.6,30.1,37.7z" class="st13"/><g><path d="M83.1,13.6c0,0,0.2,0.1,0.5,0.3c0.3,0.2,0.7,0.5,1.2,0.9c1,0.8,2.2,2.1,3.2,3.5c1,1.4,1.8,3,2.4,4.1 c0.6,1.2,0.9,1.9,0.9,1.9l-0.9,0.4c0,0-0.3-0.8-0.8-2c-0.5-1.2-1.2-2.7-2-4.2c-0.9-1.5-2-2.8-2.9-3.6c-0.5-0.4-0.9-0.8-1.2-1 C83.2,13.7,83.1,13.6,83.1,13.6z" class="st9"/></g><g><path d="M122.9,14.3c0,0,0.2-0.1,0.7-0.2c0.4-0.1,1-0.2,1.8-0.3c0.4-0.1,0.8-0.1,1.2-0.1c0.4,0,0.9-0.1,1.3,0 c0.5,0,1,0,1.4,0.1c0.5,0,1,0.2,1.5,0.2c0.5,0.1,1,0.2,1.4,0.4c0.5,0.2,0.9,0.4,1.3,0.6c0.8,0.4,1.6,1,2.1,1.5 c0.6,0.5,0.9,1,1.2,1.3c0.3,0.4,0.4,0.6,0.4,0.6s-0.2-0.2-0.5-0.4c-0.3-0.3-0.8-0.6-1.4-1c-0.6-0.4-1.3-0.8-2.1-1.1 c-0.4-0.2-0.8-0.3-1.3-0.5c-0.4-0.2-0.9-0.3-1.4-0.4c-0.5-0.1-0.9-0.2-1.4-0.3c-0.5-0.1-0.9-0.1-1.4-0.2 c-0.9-0.1-1.7-0.1-2.5-0.2c-0.7,0-1.3-0.1-1.8,0C123.1,14.3,122.9,14.3,122.9,14.3z" class="st9"/></g><g><path d="M134.2,32.5c0,0-0.9,0.2-2.4,0.6c-1.5,0.3-3.7,0.8-6.3,1.2c-1.3,0.2-2.7,0.5-4.2,0.7 c-1.5,0.2-3.1,0.4-4.8,0.5c-0.8,0.1-1.7,0.1-2.5,0.2c-0.4,0-0.9,0-1.3,0.1c-0.4,0-0.9,0-1.3,0c-1.8,0-3.6,0-5.3-0.1 c-1.8-0.1-3.5-0.3-5.3-0.5c-1.7-0.2-3.4-0.5-5.1-0.7c-1.6-0.2-3.2-0.5-4.7-0.8c-1.5-0.3-2.9-0.5-4.2-0.8c-5.2-1-8.6-2-8.6-2 s3.5,0,8.8,0.3c1.3,0.1,2.7,0.2,4.2,0.3c1.5,0.1,3.1,0.2,4.7,0.4c1.6,0.2,3.3,0.3,5,0.4c1.7,0.2,3.4,0.3,5.2,0.4 c1.7,0.1,3.5,0.2,5.1,0.2c0.9,0,1.7,0,2.5,0c0.8,0,1.7,0,2.5,0c3.3-0.1,6.3-0.2,8.9-0.3c2.6-0.1,4.8-0.1,6.4-0.1 C133.3,32.5,134.2,32.5,134.2,32.5z" class="st14"/></g><g><path d="M132.1,34c0,0-0.2,0.1-0.7,0.3c-0.5,0.2-1.1,0.4-2,0.7c-0.9,0.3-1.9,0.6-3.2,0.9c-1.2,0.3-2.7,0.6-4.2,0.9 c-1.6,0.3-3.3,0.5-5.1,0.6c-1.8,0.1-3.7,0.3-5.7,0.3c-2,0-4-0.1-6.1-0.2c-2.1-0.1-4.2-0.3-6.3-0.5c-4.2-0.5-8.3-1.2-12.2-1.9 c-3.9-0.7-7.5-1.5-10.5-2c-1.5-0.3-3-0.5-4.2-0.7c-1.3-0.2-2.4-0.3-3.3-0.4c-0.9,0-1.6,0-2.1,0c-0.5,0.1-0.7,0.1-0.7,0.1 s0.3-0.1,0.7-0.2c0.5-0.1,1.2-0.2,2.1-0.2c1.8,0,4.5,0.3,7.6,0.7c3.1,0.5,6.7,1.1,10.6,1.7c3.9,0.7,8,1.3,12.2,1.7 c2.1,0.2,4.2,0.4,6.2,0.6c2.1,0.1,4.1,0.2,6,0.2c2,0,3.8,0,5.6-0.1c1.8-0.1,3.5-0.3,5-0.5c1.5-0.2,3-0.4,4.2-0.7 c1.3-0.2,2.3-0.5,3.2-0.7c0.9-0.2,1.6-0.5,2-0.6C131.8,34.1,132.1,34,132.1,34z" class="st9"/></g><path d="M12.7,43.5c5.7,7.8,11.5,15.7,20.6,19.1C36.9,64,43.1,66,47,65.4c2.2-0.3,5.1-2.1,7-3.1 c2.2-1.1,4.2-2.7,6.4-3.7c4.3-2,9-3.4,13.3-5.4c4.7-2.1,9.6-3.7,14.5-5.4c8.9-3,18.6-3.2,27.8-4.7c4.6-0.7,8.8-1.4,13-3.4 c5.1-2.3,8.1-5.6,10.7-10.5c2.3-4.3,1.6-9.4-1.9-13c-3-3.1-8.5-3.8-12.7-3.7c-8.8,0.2-16.9,5.7-24.6,9.5 c-5.5,2.7-11.1,5.3-16.7,8c-2.2,1-2.6,1.2-5,1c-2.2-0.2-4.4-0.4-6.5-0.5c-9.6-0.4-19.4-0.4-28.9,1c-9.1,1.4-19.6,3.6-27,9.1 C14.6,42.1,14.7,42.2,12.7,43.5z" class="st2"/><path d="M108.1,31.3c-1.9-4-3.5-8.1-6.4-11.5c-5.6,5.3-13.5,8.2-20.4,11.5c2.1,0.3,11.1,1.5,13.7,1.7 c2.5,0.2,8.9,1,8.9,1S106.3,33.1,108.1,31.3z" class="st19"/></g><path d="M40.7,108.3c0.8,8.2,24.4,2,25.1,11.9" class="st18"/><path d="M112.7,122" class="st18"/><path d="M118.4,103.3" class="st18"/><g><path d="M84.4,137.3c0,0,1.5-1.1,3.4-1.6c0.5-0.1,1-0.2,1.5-0.2c0.2,0,0.5,0,0.7,0c0.2,0,0.4,0,0.6,0.1 c0.4,0.1,0.7,0.1,1,0.2c0.2,0.1,0.4,0.1,0.4,0.1c0,0,0,0,0,0.1c0,0,0,0,0,0l-1,1.7c0,0-0.3-0.2-0.8-0.5c-0.1-0.1-0.3-0.1-0.4-0.2 c-0.2-0.1-0.3-0.1-0.5-0.1c-0.4-0.1-0.8-0.1-1.2-0.1c-0.9,0-1.8,0.1-2.4,0.3C84.8,137.1,84.4,137.3,84.4,137.3z" class="st14"/></g><g><path d="M93.7,144.7c0,0-0.1,0.2-0.2,0.4c-0.1,0.1-0.1,0.3-0.3,0.5c-0.2,0.2-0.4,0.5-0.6,0.7 c-0.2,0.2-0.5,0.4-0.8,0.6c-0.3,0.2-0.6,0.3-0.9,0.4c-0.3,0.1-0.7,0.2-1,0.3c-0.3,0.1-0.7,0.1-1.1,0.2c-1.4,0.2-2.8,0.1-3.8,0 c-1-0.1-1.7-0.2-1.7-0.2s0.7,0,1.7-0.1c1-0.1,2.4-0.3,3.6-0.7c0.3-0.1,0.6-0.2,0.9-0.3c0.3-0.1,0.6-0.3,0.8-0.4 c0.3-0.1,0.5-0.3,0.7-0.5c0.2-0.1,0.3-0.3,0.5-0.5c0.1-0.2,0.1-0.3,0.2-0.4c0.1-0.1,0.1-0.3,0.2-0.4c0.1-0.3,0.1-0.5,0.1-0.5 c0.2-0.5,0.7-0.8,1.2-0.7s0.8,0.7,0.7,1.2C93.7,144.6,93.7,144.6,93.7,144.7z" class="st14"/></g><g><path d="M94.3,147.7c0,0,0,0.1-0.1,0.2c0,0.1-0.1,0.1-0.2,0.3c-0.1,0.1-0.2,0.3-0.4,0.4c-0.1,0.1-0.3,0.2-0.4,0.3 c-0.2,0.1-0.3,0.2-0.5,0.2c-0.3,0.1-0.7,0.2-1,0.2c-1.3,0.1-2.5-0.2-2.5-0.2s0.3-0.1,0.7-0.2c0.4-0.1,1-0.3,1.5-0.6 c0.2-0.1,0.5-0.3,0.6-0.4c0.1-0.1,0.1-0.2,0.2-0.2c0.1-0.1,0.1-0.1,0.1-0.2c0-0.1,0-0.1,0-0.1c0,0,0-0.1,0-0.1c0-0.1,0-0.2,0-0.2 c0.1-0.6,0.6-1,1.1-0.9c0.6,0.1,1,0.6,0.9,1.1C94.4,147.5,94.3,147.6,94.3,147.7z" class="st14"/></g><path d="M59,96.1c2.2,1.4-0.5,6.4,6.8,12.3c6.3,5.2,14.8,8.8,14.8,8.8s2.4-5.4,9.2-11.9 C74.8,106.7,69.2,102.7,59,96.1z" class="st9"/><path d="M107.7,93.8c-5,3.8-5.2,16.4-5.2,16.4s-4.4-0.3-12.8-4.8C102.2,101.1,98.7,100.5,107.7,93.8z" class="st9"/><path d="M59,96.1c2.2,1.4,0.9,1.4,7.8,7.7c6,5.5,14.6,6.3,14.6,6.3s3-1.8,8.3-4.8C74.8,106.7,69.2,102.7,59,96.1z" class="st11"/><path d="M59,96.1c2.2,1.4-0.5,6.4,6.8,12.3c6.3,5.2,14.8,8.8,14.8,8.8s2.4-5.4,9.2-11.9 C74.8,106.7,69.2,102.7,59,96.1z" class="st18"/><path d="M106.8,95.6c-5,3.8-9.1,11.1-9.1,11.1s-1.1-1.1-7.8-1.3C102.4,101.1,97.8,102.4,106.8,95.6z" class="st11"/><path d="M107.7,93.8c-5,3.8-5.2,16.4-5.2,16.4s-4.4-0.3-12.8-4.8C102.2,101.1,98.7,100.5,107.7,93.8z" class="st18"/><g><line x1="121.6" x2="148.6" y1="134.1" y2="36" class="st20"/><polygon points="119.7 133.6 148.6 36 123.6 134.7" class="st21"/></g><path d="M132.4,137c-1.6,5.6-25.3-1.2-23.7-6.7c1.6-5.6,8.2-8.6,14.7-6.7C130,125.4,134,131.5,132.4,137z" class="st22"/><g><path d="M126,127.6c0,0,0.2,0.1,0.5,0.2c0.3,0.1,0.7,0.3,1.1,0.7c0.4,0.3,0.8,0.8,1.2,1.4c0.2,0.3,0.3,0.6,0.4,0.9 c0.1,0.3,0.2,0.7,0.3,1c0,0.4,0.1,0.7,0.1,1.1c0,0.4-0.1,0.7-0.1,1c-0.1,0.6-0.4,1.2-0.7,1.7c-0.3,0.4-0.6,0.8-0.8,1 c-0.2,0.2-0.4,0.3-0.4,0.3s-0.1-0.2-0.2-0.5c-0.1-0.3-0.2-0.7-0.3-1.2c-0.2-0.9-0.4-2-0.5-2.9c-0.2-1-0.3-2-0.4-2.9 c0-0.5-0.1-0.9-0.1-1.2C126,127.8,126,127.6,126,127.6z" class="st9"/></g><path d="M114.8,146.4c1.1,8.1,22.6,8.6,17.2-8.8" class="st23"/></g></switch></svg>