<svg xmlns="http://www.w3.org/2000/svg" xmlns:cc="https://creativecommons.org/ns#" xmlns:dc="https://purl.org/dc/elements/1.1/" xmlns:inkscape="https://www.inkscape.org/namespaces/inkscape" xmlns:sodipodi="https://sodipodi.sourceforge.net/DTD/sodipodi-0.dtd" xmlns:svg="http://www.w3.org/2000/svg" xmlns:xlink="http://www.w3.org/1999/xlink" id="svg2" x="0" y="0" version="1.1" viewBox="0 0 243.12 255.09" xml:space="preserve" style="enable-background:new 0 0 243.12 255.09"><style type="text/css">.st0,.st1{fill:#6d6c6c;stroke:#1d1e1b;stroke-width:4;stroke-linecap:round;stroke-linejoin:round;stroke-miterlimit:10}.st1{fill:#dbd9d8}.st2{fill:#a7a5a6}.st3{fill:none;stroke:#1d1d1b;stroke-width:4;stroke-miterlimit:10}.st4{opacity:.31;fill:#1d1d1b}.st5{fill:#828383;stroke:#1d1d1b;stroke-width:4;stroke-linecap:round;stroke-linejoin:round;stroke-miterlimit:10}.st6{fill:#fff}.st7{fill:#f0d6b7}.st7,.st8,.st9{fill-rule:evenodd;clip-rule:evenodd}.st8{fill:#335061}.st9{fill:#6d6b6d}.st10{fill:#dcd9d8}.st10,.st11{fill-rule:evenodd;clip-rule:evenodd}.st11,.st12{fill:#f7e4cd}.st13{fill:#49728b}.st13,.st14,.st15{fill-rule:evenodd;clip-rule:evenodd}.st14{fill:#fff}.st15{fill:#d33833}.st16{fill:none;stroke:#d33833;stroke-width:2.5;stroke-miterlimit:5}.st17{fill:#ef3d3a}.st17,.st18,.st19,.st20{fill-rule:evenodd;clip-rule:evenodd}.st18{fill:#231f20}.st19{fill:#81b0c4}.st20{fill:#1d1919}</style><switch><g><polygon points="216.19 244.17 192.2 244.17 184.09 187.82 202.18 186.78" class="st0"/><polygon points="216.19 244.17 210.49 244.17 189.53 187.5 202.18 186.78" class="st1"/><polygon points="23.16 244.48 47.15 244.48 55.26 188.13 37.17 187.09" class="st0"/><polygon points="23.16 244.48 28.86 244.48 49.82 187.82 37.17 187.09" class="st1"/><circle cx="111.91" cy="204.84" r="23.87" class="st2"/><circle cx="111.28" cy="205.37" r="23.87" class="st3"/><path d="M115.51,225.89c-11.41,0-20.67-9.25-20.67-20.67s9.25-20.67,20.67-20.67c7.63,0,14.27,4.14,17.85,10.29 c-3.92-7.82-12-13.19-21.35-13.19c-13.18,0-23.87,10.69-23.87,23.87c0,13.18,10.69,23.87,23.87,23.87 c10.82,0,19.95-7.2,22.88-17.06C132,220.23,124.42,225.89,115.51,225.89z" class="st4"/><circle cx="120.18" cy="32.19" r="23.87" class="st2"/><circle cx="119.55" cy="32.72" r="23.87" class="st3"/><path d="M123.78,53.24c-11.41,0-20.67-9.25-20.67-20.67s9.25-20.67,20.67-20.67c7.63,0,14.27,4.14,17.85,10.29 c-3.92-7.82-12-13.19-21.35-13.19c-13.18,0-23.87,10.69-23.87,23.87c0,13.18,10.69,23.87,23.87,23.87 c10.82,0,19.95-7.2,22.88-17.06C140.27,47.59,132.7,53.24,123.78,53.24z" class="st4"/><circle cx="189.57" cy="170.24" r="23.87" class="st2"/><circle cx="188.94" cy="170.77" r="23.87" class="st3"/><path d="M193.16,193.36c-12.05,0-21.82-9.77-21.82-21.82c0-12.05,9.77-21.82,21.82-21.82 c5.56,0,10.63,2.08,14.49,5.51c-4.38-5.01-10.8-8.17-17.97-8.17c-13.18,0-23.87,10.69-23.87,23.87s10.69,23.87,23.87,23.87 c4.17,0,8.09-1.07,11.51-2.96C198.7,192.81,196,193.36,193.16,193.36z" class="st4"/><circle cx="51.15" cy="171.58" r="23.87" class="st2"/><circle cx="50.52" cy="172.11" r="23.87" class="st3"/><path d="M51.26,148.39c-13.18,0-23.87,10.69-23.87,23.87s10.69,23.87,23.87,23.87c13.18,0,23.87-10.69,23.87-23.87 S64.44,148.39,51.26,148.39z M54.62,192.59c-11.31,0-20.48-9.17-20.48-20.48c0-11.31,9.17-20.48,20.48-20.48 s20.48,9.17,20.48,20.48C75.1,183.42,65.93,192.59,54.62,192.59z" class="st4"/><path d="M106.14,44.28l-54.57,29.9c-1.86,1.02-4.19,0.34-5.2-1.52l0,0c-1.02-1.86-0.34-4.19,1.52-5.2l54.57-29.9 c1.86-1.02,4.19-0.34,5.2,1.52l0,0C108.68,40.94,108,43.26,106.14,44.28z" class="st5"/><path d="M185.98,74.54l-53.03-32.56c-1.8-1.11-2.37-3.47-1.26-5.27v0c1.11-1.8,3.47-2.37,5.27-1.26l53.03,32.56 c1.8,1.11,2.37,3.47,1.26,5.27v0C190.14,75.09,187.78,75.65,185.98,74.54z" class="st5"/><g><path d="M189.5,153.08c2.11-0.6,4.47-0.73,6.69-0.03c1.15,0.25,2.17,0.84,3.21,1.39c0.48,0.33,0.95,0.69,1.43,1.04 c0.48,0.35,0.85,0.81,1.28,1.21c1.6,1.71,2.74,3.79,3.37,5.95c0.61,2.16,0.83,4.44,0.31,6.63c-1.06-1.96-2.04-3.74-3.08-5.42 c-1.04-1.67-2.16-3.19-3.41-4.54c-0.6-0.71-1.31-1.27-1.99-1.91c-0.75-0.51-1.45-1.16-2.3-1.6c-0.41-0.23-0.8-0.55-1.25-0.74 c-0.44-0.21-0.89-0.43-1.34-0.67c-0.44-0.29-0.94-0.41-1.42-0.63C190.51,153.57,190.01,153.35,189.5,153.08z" class="st6"/></g><g><path d="M50.38,154.22c0.99-0.23,2-0.36,3.03-0.4c0.51,0.02,1.02,0.05,1.53,0.1c0.26,0.02,0.52,0.05,0.77,0.08 l0.76,0.18c0.5,0.13,1.01,0.26,1.51,0.41c0.49,0.19,0.97,0.42,1.45,0.64c0.49,0.2,0.93,0.5,1.38,0.79 c0.44,0.3,0.9,0.57,1.29,0.94c1.67,1.35,2.94,3.14,3.75,5.07c0.79,1.93,1.15,4.05,0.75,6.08c-1.02-1.77-2.02-3.32-3.12-4.74 c-1.1-1.41-2.27-2.68-3.6-3.76c-0.3-0.31-0.68-0.52-1.01-0.79c-0.34-0.27-0.68-0.53-1.06-0.75c-0.37-0.23-0.74-0.47-1.1-0.72 c-0.39-0.2-0.78-0.41-1.18-0.63l-0.59-0.34l-0.62-0.28c-0.42-0.19-0.84-0.4-1.26-0.62C52.2,155.06,51.29,154.74,50.38,154.22z" class="st6"/></g><path d="M44.08,151.87l-8.41-48.6c-0.32-1.87,0.93-3.65,2.8-3.98l0.77-0.13c1.87-0.32,3.65,0.93,3.98,2.8l8.41,48.6 c0.32,1.87-0.93,3.65-2.8,3.98l-0.77,0.13C46.18,155,44.4,153.75,44.08,151.87z" class="st5"/><path d="M192.19,150.59l6.5-42.86c0.32-2.09,2.27-3.53,4.36-3.21h0c2.09,0.32,3.53,2.27,3.21,4.36l-6.5,42.86 c-0.32,2.09-2.27,3.53-4.36,3.21l0,0C193.31,154.64,191.87,152.68,192.19,150.59z" class="st5"/><path d="M91.87,201.37l-25.47-14.7c-1.83-1.06-2.46-3.4-1.4-5.23l0,0c1.06-1.83,3.4-2.46,5.23-1.4l25.47,14.7 c1.83,1.06,2.46,3.4,1.4,5.23l0,0C96.04,201.8,93.7,202.43,91.87,201.37z" class="st5"/><path d="M101.93,146.28l-33.23,20.93c-1.79,1.13-4.16,0.59-5.28-1.2l0,0c-1.13-1.79-0.59-4.16,1.2-5.28l33.23-20.93 c1.79-1.13,4.16-0.59,5.28,1.2l0,0C104.26,142.79,103.72,145.16,101.93,146.28z" class="st5"/><path d="M173.5,165.31l-24.28-16.58c-1.75-1.19-2.2-3.58-1-5.33l0,0c1.19-1.75,3.58-2.2,5.33-1l24.28,16.58 c1.75,1.19,2.2,3.58,1,5.33l0,0C177.63,166.06,175.25,166.51,173.5,165.31z" class="st5"/><path d="M138.77,187.55l32.16-7.27c2.06-0.47,4.12,0.83,4.58,2.89v0c0.47,2.06-0.83,4.12-2.89,4.58l-32.16,7.27 c-2.06,0.47-4.12-0.83-4.58-2.89v0C135.41,190.07,136.71,188.02,138.77,187.55z" class="st5"/><circle cx="37.49" cy="82.34" r="26.26" class="st2"/><circle cx="36.86" cy="82.87" r="26.26" class="st3"/><path d="M41.07,104.34c-12.8,0-23.18-10.38-23.18-23.18c0-12.8,10.38-23.18,23.18-23.18c1.83,0,3.61,0.22,5.32,0.62 c-3.08-1.27-6.46-1.98-10-1.98c-14.5,0-26.26,11.76-26.26,26.26c0,14.5,11.76,26.26,26.26,26.26c10.16,0,18.97-5.78,23.34-14.22 C55.5,100.63,48.72,104.34,41.07,104.34z" class="st4"/><path d="M81.35,108.4l-29.9-13.88c-1.92-0.89-2.75-3.17-1.86-5.09l0,0c0.89-1.92,3.17-2.75,5.09-1.86l29.9,13.88 c1.92,0.89,2.75,3.17,1.86,5.09v0C85.55,108.46,83.27,109.3,81.35,108.4z" class="st5"/><circle cx="208.1" cy="83.98" r="26.26" class="st2"/><circle cx="207.47" cy="84.51" r="26.26" class="st3"/><path d="M234.29,81.61c0,0.16,0.01,0.31,0.01,0.47c0,12.52-10.15,22.68-22.68,22.68s-22.68-10.15-22.68-22.68 c0-12.52,10.15-22.68,22.68-22.68c2.29,0,4.49,0.34,6.58,0.97c-3.08-1.27-6.45-1.97-9.99-1.97c-14.5,0-26.26,11.76-26.26,26.26 c0,14.5,11.76,26.26,26.26,26.26c14.5,0,26.26-11.76,26.26-26.26C234.47,83.63,234.4,82.61,234.29,81.61z" class="st4"/><path d="M190.53,97.78l-26.44,12.86c-1.9,0.93-4.2,0.13-5.12-1.77l0,0c-0.93-1.9-0.13-4.2,1.77-5.12l26.44-12.86 c1.9-0.93,4.2-0.13,5.12,1.77v0C193.23,94.56,192.44,96.85,190.53,97.78z" class="st5"/><g id="g10" transform="matrix(1.25,0,0,-1.25,0,312)" inkscape:groupmode="layer" inkscape:label="ink_ext_XXXXXX"><g id="g3393"><path id="path28" d="M120.48,133.63l-8.36-1.25l-11.29-1.25l-7.32-0.21 l-7.11,0.21l-5.44,1.67l-4.81,5.23l-3.76,10.66l-0.84,2.3l-5.02,1.67l-2.93,4.81l-2.09,6.9l2.3,6.06l5.44,1.88l4.39-2.09 l2.09-4.6l2.51,0.42l0.84,1.04l-0.84,4.81l-0.21,6.06l1.25,8.36l-0.05,4.78l3.81,6.09l6.69,4.81l11.71,5.02l12.96-1.88 l11.29-8.15l5.23-8.36l3.34-6.06l0.84-15.05l-2.51-12.96l-4.6-11.5l-4.39-6.06" class="st7" inkscape:connector-curvature="0"/><path id="path30" d="M113.37,97.46l-29.9-1.25v-5.02l2.51-17.56l-1.25-1.46 l-20.91,7.11l-1.46,2.51l-2.09,23.62l-4.81,14.22l-1.05,3.34l16.72,11.5l5.23,2.09l4.6-5.64l3.97-3.55l4.6-1.46l2.09-0.63 l2.51-10.87l1.88-2.3l4.81,1.67l-3.35-6.48l18.19-8.57L113.37,97.46" class="st8" inkscape:connector-curvature="0"/><path id="path32" d="M63.83,170.42l5.44,1.88l4.39-2.09l2.09-4.6l2.51,0.42 l0.63,2.51l-1.25,4.81l1.25,11.5l-1.05,6.27l3.76,4.39l8.15,6.48l-2.3,3.14l-11.5-5.64l-4.81-3.76l-2.72-5.85l-4.18-5.64 l-1.25-6.69L63.83,170.42" class="st9" inkscape:connector-curvature="0"/><path id="path34" d="M72.4,190.07c0,0,3.14,7.74,15.68,11.5s0.63,2.72,0.63,2.72 l-13.59-5.23l-5.23-5.23l-2.3-4.18L72.4,190.07" class="st10" inkscape:connector-curvature="0"/><path id="path36" d="M66.12,171.89c0,0-4.39,14.64,12.34,16.73l-0.63,2.51 l-11.5-2.72l-3.35-10.87l0.84-7.11L66.12,171.89" class="st10" inkscape:connector-curvature="0"/><path id="path38" d="M72.82,152.44l2.74,2.65c0,0,1.24-0.14,1.44-1.61 c0.21-1.46,0.84-14.64,9.83-21.74c0.82-0.65-6.69,1.05-6.69,1.05l-6.69,10.45" class="st11" inkscape:connector-curvature="0"/><path id="path40" d="M111.28,156.41c0,0,0.49,6.34,2.19,5.85 c1.71-0.49,1.71-2.19,1.71-2.19S111.04,157.39,111.28,156.41" class="st11" inkscape:connector-curvature="0"/><path id="path42" d="M128.64,179.62c0,0-3.45-0.73-3.76-3.76 c-0.32-3.04,3.76-0.63,4.39-0.42" class="st12" inkscape:connector-curvature="0"/><path id="path44" d="M103.34,179.41c0,0-4.6-0.63-4.6-3.55 c0-2.93,5.23-2.72,6.69-1.46" class="st12" inkscape:connector-curvature="0"/><path id="path46" d="M74.91,165.82c0,0-7.94,4.81-8.78,0.21 c-0.84-4.6-2.72-7.94,1.25-12.75l-2.72,0.84l-2.51,6.48l-0.84,6.27l4.81,5.02l5.44-0.42l3.14-2.51L74.91,165.82" class="st11" inkscape:connector-curvature="0"/><path id="path48" d="M78.67,178.99c0,0,3.55,18.4,21.53,21.95 c14.8,2.93,22.58-0.63,25.51-3.97c0,0-13.17,15.68-25.72,10.87c-12.54-4.81-21.74-13.59-21.53-19.23 C78.82,179,78.67,178.99,78.67,178.99" class="st11" inkscape:connector-curvature="0"/><path id="path50" d="M127.17,194.88c0,0-6.06,0.21-6.27-5.23 c0,0,0-0.84,0.42-1.67c0,0,4.81,5.44,7.74,2.51" class="st11" inkscape:connector-curvature="0"/><path id="path52" d="M100.62,187.42c0,0-1.04,8.34-8.16,3.49 c-4.6-3.14-4.18-7.53-3.34-8.36c0.84-0.84,0.61-2.52,1.25-1.36c0.64,1.16,0.43,4.92,2.73,5.96 C95.39,188.19,99.16,189.36,100.62,187.42" class="st11" inkscape:connector-curvature="0"/><path id="path54" d="M80.97,130.91l-19.65-8.78c0,0,8.15-32.41,3.97-42.44 l-2.93,1.04l-0.21,12.34l-5.44,23.42l-2.3,6.48l20.49,13.8L80.97,130.91" class="st13" inkscape:connector-curvature="0"/><path id="path56" d="M82.99,112.98l2.79-3.4V97.04h-3.35 c0,0-0.42,8.78-0.42,9.83c0,1.05,0.42,4.81,0.42,4.81" class="st13" inkscape:connector-curvature="0"/><path id="path58" d="M83.06,95.16l-9.41-0.42l2.72-1.88l6.69-1.05" class="st13" inkscape:connector-curvature="0"/><path id="path60" d="M115.26,97.25l7.74,0.21l1.88-19.23l-7.94-1.04L115.26,97.25" class="st8" inkscape:connector-curvature="0"/><path id="path62" d="M117.35,97.25l11.71,0.63c0,0,4.81,12.13,4.81,12.75 s4.18,17.56,4.18,17.56l-9.41,9.83l-1.88,1.67l-5.02-5.02v-19.44L117.35,97.25" class="st8" inkscape:connector-curvature="0"/><path id="path64" d="M122.57,98.71l-7.32-1.46l1.04-5.85 c2.72-1.25,7.32,2.09,7.32,2.09" class="st13" inkscape:connector-curvature="0"/><path id="path66" d="M122.78,135.3l14.63-10.87l0.42,5.02l-11.08,10.24 L122.78,135.3" class="st13" inkscape:connector-curvature="0"/><path id="path68" d="M90.31,56.06l-4.33,17.56l-2.15,12.96l-0.36,9.62 l19.59,1.04l12.19,0l-1.11-21.95l1.88-16.93l-0.21-3.14l-15.89-1.25L90.31,56.06" class="st14" inkscape:connector-curvature="0"/><path id="path70" d="M112.54,97.46c0,0-1.04-21.74,2.09-37.21 c0,0-6.27-3.97-15.47-5.02l17.56,0.63l2.09,1.25l-2.51,34.29l-0.63,7.32" class="st10" inkscape:connector-curvature="0"/><path id="path72" d="M125.23,79.89l8.15,2.3l15.47,0.84l2.3,7.11l-4.18,12.34 l-4.81,0.63l-6.69-2.09l-6.42-3.13l-3.41,0.63l-2.66-1.04" class="st14" inkscape:connector-curvature="0"/><path id="path74" d="M125.08,84.08c0,0,5.44,2.51,6.27,2.3l-2.3,11.5l2.72,1.04 c0,0,1.88-10.87,1.88-12.13c0,0,11.71-0.63,12.75-0.63c0,0,2.51,4.81,1.88,9.83l2.3-6.69l0.21-3.76l-3.34-5.02l-3.76-0.84 l-6.27,0.21l-2.09,2.72l-7.32-1.04l-2.3-0.84" class="st10" inkscape:connector-curvature="0"/><path id="path76" d="M116.87,98.92l-4.6,11.71l-4.81,6.9c0,0,1.04,2.93,2.51,2.93 s4.81,0,4.81,0l4.6-1.67l-0.42-7.74L116.87,98.92" class="st6" inkscape:connector-curvature="0"/><path id="path78" d="M117.77,102.89c0,0-5.85,11.29-5.85,12.96 c0,0,1.04,2.51,2.51,1.88c1.46-0.63,4.6-2.3,4.6-2.3v3.97l-7.11,1.46l-4.81-0.63l8.15-19.23l1.67-0.21" class="st10" inkscape:connector-curvature="0"/><path id="path80" d="M92.2,130.49l-5.79,0.63l-5.44,1.67v-1.88l2.66-2.93 l8.36-3.76" class="st6" inkscape:connector-curvature="0"/><path id="path82" d="M82.85,129.86c0,0,6.48-2.72,8.57-2.09l0.21-2.51 l-5.85,1.25l-3.55,2.51L82.85,129.86" class="st10" inkscape:connector-curvature="0"/><path id="path84" d="M125.21,119.74c-3.55,0.1-6.75,0.53-9.56,1.32 c0.19,1.15-0.17,2.28,0.12,3.11c0.78,0.56,2.09,0.55,3.28,0.69c-1.02,0.5-2.46,0.7-3.64,0.41c-0.03,0.8-0.39,1.29-0.6,1.92 c1.99,0.71,6.7,5.38,9.35,3.83c1.26-0.74,1.8-4.93,1.9-6.98C126.13,122.35,125.9,120.64,125.21,119.74" class="st15" inkscape:connector-curvature="0"/><path id="path86" d="M125.21,119.74c-3.55,0.1-6.75,0.53-9.56,1.32 c0.19,1.15-0.17,2.28,0.12,3.11c0.78,0.56,2.09,0.55,3.28,0.69c-1.02,0.5-2.46,0.7-3.64,0.41c-0.03,0.8-0.39,1.29-0.6,1.92 c1.99,0.71,6.7,5.38,9.35,3.83c1.26-0.74,1.8-4.93,1.9-6.98C126.13,122.35,125.9,120.64,125.21,119.74z" class="st16" inkscape:connector-curvature="0"/><path id="path88" d="M108.24,125.54c-0.01-0.27-0.02-0.54-0.03-0.81 c-1.11-0.73-2.9-0.72-4.11-1.33c1.79-0.08,3.2-0.51,4.42-1.12c-0.03-0.68-0.05-1.35-0.08-2.03c-2.03-1.39-3.88-3.46-6.28-4.76 c-1.13-0.62-5.1-2.2-6.3-1.92c-0.68,0.16-0.74,1-1.01,1.8c-0.58,1.7-1.91,4.42-2.03,6.98c-0.15,3.24-0.48,8.67,3.02,8 c2.82-0.54,6.09-1.84,8.27-3.03C105.45,126.6,106.22,125.7,108.24,125.54" class="st15" inkscape:connector-curvature="0"/><path id="path90" d="M108.24,125.54c-0.01-0.27-0.02-0.54-0.03-0.81 c-1.11-0.73-2.9-0.72-4.11-1.33c1.79-0.08,3.2-0.51,4.42-1.12c-0.03-0.68-0.05-1.35-0.08-2.03c-2.03-1.39-3.88-3.46-6.28-4.76 c-1.13-0.62-5.1-2.2-6.3-1.92c-0.68,0.16-0.74,1-1.01,1.8c-0.58,1.7-1.91,4.42-2.03,6.98c-0.15,3.24-0.48,8.67,3.02,8 c2.82-0.54,6.09-1.84,8.27-3.03C105.45,126.6,106.22,125.7,108.24,125.54z" class="st16" inkscape:connector-curvature="0"/><path id="path92" d="M110.26,121.67c-0.31,1.76-0.67,2.27-0.53,3.81 C114.44,128.62,115.32,120.09,110.26,121.67" class="st15" inkscape:connector-curvature="0"/><path id="path94" d="M110.26,121.67c-0.31,1.76-0.67,2.27-0.53,3.81 C114.44,128.62,115.32,120.09,110.26,121.67z" class="st16" inkscape:connector-curvature="0"/><path id="path96" d="M117.08,120.24c0,0-1.46,2.09-0.42,2.72 c1.05,0.63,2.09,0,2.72,1.04c0.63,1.05,0,1.67,0.21,2.93c0.21,1.25,1.26,1.46,2.3,1.67s3.97,0.63,4.39-0.42l-1.25,3.76 l-2.51,0.84l-7.94-4.6l-0.42-2.3v-4.6" class="st17" inkscape:connector-curvature="0"/><path id="path98" d="M95.12,113.34c-0.25,3.26-0.52,6.52-0.81,9.78 c-0.44,4.87,1.17,4.02,5.39,4.02c0.64,0,3.97-0.77,4.21-1.25c1.14-2.33-1.91-1.81,1.31-3.57c2.72-1.48,7.52,0.9,6.42,4.19 c-0.61,0.73-3.2,0.23-4.13,0.71c-1.63,0.85-3.27,1.69-4.9,2.54c-2.08,1.08-6.88,2.65-9.1,1.14c-5.61-3.82,0.35-13.36,2.36-17.34" class="st17" inkscape:connector-curvature="0"/><path id="path100" d="M100.62,187.42c-5.7,1.33-8.53-2.38-10.26-6.23 c-1.54,0.37-0.93,2.47-0.54,3.54c1.02,2.8,5.13,6.54,8.49,6.03C99.76,190.54,101.72,189.22,100.62,187.42" class="st18" inkscape:connector-curvature="0"/><path id="path102" d="M128.39,180.93c0.09,0,0.18-0.01,0.27-0.01 c1.29-2.68,2.4-5.51,4.03-7.87c-1.09-2.53-8.24-4.78-8.13-0.23c1.55,0.68,4.22,0.14,5.59,1 C129.35,176,128.21,177.85,128.39,180.93" class="st18" inkscape:connector-curvature="0"/><path id="path104" d="M103.54,180.86c1.22-2.24,1.62-4.59,3.36-6.29 c0.78-0.76,2.3-1.69,1.55-3.81c-0.18-0.5-1.46-1.61-2.21-1.83c-2.72-0.8-9.04-0.17-6.9,3.22c2.25-0.1,5.26-1.46,6.94,0.17 C104.99,174.38,102.7,178.46,103.54,180.86" class="st18" inkscape:connector-curvature="0"/><path id="path106" d="M127.37,158.1c-4.09-2.63-8.65-5.48-15.35-4.82 c-1.43,1.24-1.98,4.01-0.59,5.84c0.72-1.24,0.27-3.53,2.29-3.88c3.8-0.65,8.22,2.33,10.96,3.36c1.7,2.86-0.15,3.91-1.67,5.75 c-3.13,3.77-7.32,8.44-7.17,14.08c1.26,0.92,1.37-1.4,1.55-1.82c1.63-3.82,5.74-8.71,8.74-11.98c0.74-0.81,1.95-1.58,2.08-2.11 C128.61,160.98,127.21,159.13,127.37,158.1" class="st18" inkscape:connector-curvature="0"/><path id="path108" d="M73.47,160.86c-1.28,0.73-1.59,3.95-3.09,4.04 c-2.15,0.13-1.76-4.18-1.75-6.7c-1.48,1.34-1.74,5.48-0.65,7.6c-1.24,0.61-1.79-0.67-2.48-1.12 C66.39,171.1,74.89,167.66,73.47,160.86" class="st18" inkscape:connector-curvature="0"/><path id="path110" d="M129.97,155.42c-1.9-3.62-4.59-7.61-10.18-7.73 c-0.11,1.17-0.2,2.95,0.01,3.65C124.07,151.76,126.7,153.93,129.97,155.42" class="st18" inkscape:connector-curvature="0"/><path id="path112" d="M103.22,153.08c3.56-1.87,10.11-2.07,14.95-1.93 c0.26-1.06,0.25-2.37,0.26-3.66C112.21,147.17,104.85,148.71,103.22,153.08" class="st18" inkscape:connector-curvature="0"/><path id="path114" d="M102.54,149.58c2.46-6.18,10.93-5.47,18.07-5.3 c-0.31-0.8-1-1.75-1.84-2.09c-2.29-0.93-8.6-1.64-11.77,0.05c-2.01,1.07-3.31,3.49-4.41,4.91 C102.05,147.83,99.4,149.58,102.54,149.58" class="st18" inkscape:connector-curvature="0"/><path id="path116" d="M127.07,115.47c-2.89-4.95-5.66-10.03-9.08-14.4 c1.44,4.23,2.05,11.3,2.27,16.69C123.27,119.18,125.84,117.45,127.07,115.47" class="st19" inkscape:connector-curvature="0"/><path id="path118" d="M142.62,97.68c-3.24-0.65-5.51-3.79-8.67-3.59 C135.69,96.54,138.73,97.57,142.62,97.68" class="st18" inkscape:connector-curvature="0"/><path id="path120" d="M144.05,92.62c-2.64-0.28-5.74-0.71-8.41-0.49 C136.91,94.07,141.79,93.4,144.05,92.62" class="st18" inkscape:connector-curvature="0"/><path id="path122" d="M144.97,88.25c-2.96-0.06-6.65-0.01-9.47,0.23 C137.17,90.27,143.04,89.15,144.97,88.25" class="st18" inkscape:connector-curvature="0"/><path id="path124" d="M121.5,76.31c0.43-3.72,1.9-7.49,1.72-11.57 c-1.64-0.55-2.58-1.04-4.78-1.03c-0.15,3.46-0.62,8.76-0.48,12.06C119.04,75.69,120.63,76.54,121.5,76.31" class="st10" inkscape:connector-curvature="0"/><path id="path126" d="M116.72,131.17c-1.49-0.97-2.76-2.18-4.19-3.22 c-3.17-0.16-4.9,0.22-7.23,2.04c0.04,0.15,0.27,0.08,0.28,0.26C108.98,128.73,113.29,130.86,116.72,131.17" class="st7" inkscape:connector-curvature="0"/><path id="path128" d="M98.9,108.04c0.93,4.04,4.59,6.13,7.9,8.36 c3.42-4.35,5.51-9.93,7.8-15.33C109.19,102.7,103.65,105.35,98.9,108.04" class="st19" inkscape:connector-curvature="0"/><path id="path130" d="M117.96,75.77c-0.14-3.3,0.32-8.6,0.48-12.06 c2.2,0,3.14,0.48,4.78,1.03c0.19,4.08-1.29,7.85-1.72,11.57C120.63,76.54,119.04,75.69,117.96,75.77z M83.76,94.55 c1.45-13.31,3.55-24.5,7.39-36.29c8.54-2.59,18.83-2.82,26.37-0.48c-1.39,6.65-0.78,14.75-1.59,21.85 c-0.61,5.34-0.3,10.71-1.14,16.15C105.66,97.69,92.74,96.23,83.76,94.55z M116.97,95.7c-0.08-5.72,0.26-11.36,0.69-17.08 c2.2,0.33,3.68,0.55,5.72,1c-0.66,5.51-0.58,11.71-1.93,16.59C119.89,96.19,118.52,96.22,116.97,95.7z M128.1,96.62 c-1.04,0.24-2.25,0.01-3.25-0.01c0.47-4.66,1.6-9.8,2-14.69c1.57-0.05,2.4,0.69,3.69,0.94 C130.61,87.15,130.17,93.07,128.1,96.62L128.1,96.62z M144.96,81.22c3.26,0.79,5.32,4.79,4.4,8.9c-0.61,2.76-1.7,7.96-2.87,9.72 c-0.86,1.31-3.2,3.02-5.07,1.82c-3.04-1.95-8.39-2.51-10.61-4.87c1.11-3.7,1.46-8.78,1.91-13.47c3.8-0.24,8.47,1.04,11.63-0.32 c-2.2-0.71-5.07-0.72-6.97-1.76C138.94,80.49,142.59,80.64,144.96,81.22L144.96,81.22z M114.61,101.07 c-2.29,5.39-4.38,10.98-7.8,15.33c-3.32-2.22-6.97-4.32-7.9-8.36C103.65,105.35,109.19,102.7,114.61,101.07z M120.26,117.77 c-0.22-5.39-0.83-12.47-2.27-16.69c3.43,4.37,6.19,9.45,9.08,14.4C125.84,117.45,123.27,119.18,120.26,117.77z M113.85,120.04 c-1.3,0.14-2.4-1.49-4.09-0.79c-0.39-0.43-0.74-0.89-1.13-1.31c3.73-4.5,5.43-10.87,8.31-16.16c1.55,5.08,1.37,10.64,1.71,16.17 C116.52,117.83,115.34,119.89,113.85,120.04z M109.73,125.48c-0.14-1.54,0.22-2.04,0.53-3.81 C115.32,120.09,114.44,128.62,109.73,125.48z M104.12,127.33c-2.18,1.19-5.46,2.49-8.27,3.03c-3.49,0.67-3.16-4.76-3.02-8 c0.12-2.57,1.45-5.28,2.03-6.98c0.27-0.8,0.33-1.64,1.01-1.8c1.2-0.28,5.17,1.31,6.3,1.92c2.39,1.3,4.25,3.37,6.28,4.76 c0.03,0.68,0.05,1.35,0.08,2.03c-1.22,0.61-2.63,1.04-4.42,1.12c1.22,0.61,3,0.6,4.11,1.33c0.01,0.27,0.02,0.54,0.03,0.81 C106.22,125.7,105.45,126.6,104.12,127.33z M83.29,131.11c-1.81-1.84,5.08-4.34,7.27-4.48c-0.01,1.16,0.66,2.26,0.53,3.09 C88.48,130.18,85.05,129.88,83.29,131.11z M105.58,130.25c-0.01-0.18-0.24-0.11-0.28-0.26c2.33-1.82,4.06-2.2,7.23-2.04 c1.43,1.04,2.7,2.25,4.19,3.22C113.29,130.86,108.98,128.73,105.58,130.25z M126.05,124.04c-0.1,2.04-0.63,6.24-1.9,6.98 c-2.65,1.55-7.36-3.12-9.35-3.83c0.22-0.62,0.58-1.12,0.6-1.92c1.18,0.29,2.62,0.09,3.64-0.41c-1.18-0.13-2.49-0.12-3.28-0.69 c-0.29-0.83,0.07-1.96-0.12-3.11c2.81-0.79,6.01-1.21,9.56-1.32C125.9,120.64,126.13,122.35,126.05,124.04z M80.24,129.33 c-0.57,0.41-4.41,5.41-4.94,5.2c-6.96-2.74-13.46-7.49-19.28-11.98c5.54-11.89,7.78-26.47,8.18-40.51 c6.35-2.97,11.93-7.25,20.54-7.7c-1,7.05-1.91,13.35-2.47,19.99c-2.17,0.91-5.27-0.04-7.3,0.28c-0.02,2.44,3.09,1.07,3.35,2.71 c0.2,1.24-1.71,1.34-1.09,3.29c1.58-0.58,2.42-1.85,4.1-2.33c1.54,3.38-0.02,9.35,0.2,12.17c0.04,0.53,0.26,2.94,1.45,2.51 c1.05-0.37-0.06-6.4,0.06-9.07c0.1-2.46-0.3-4.84,0.7-6.39c8.33,1.13,16.79,1.87,25.8,2.11c-1.98,0.85-4.34,1.66-6.92,3.11 c-1.4,0.79-5.81,2.43-6.21,3.76c-0.64,2.12,1.69,3.25,2.09,5.06c-4.2-2.29-5.02,2.2-6.02,5.38c-0.9,2.88-1.41,5.03-1.63,6.69 C87.23,125.37,83.35,127.12,80.24,129.33L80.24,129.33z M122.37,133.93c5.8,2.81,6.84-10.51,4.57-14.8 c0.35-1.28,1.56-1.77,2.05-2.92c-3.24-5.8-6.83-11.2-10.13-16.93c2.46,1.53,5.96,0.27,8.85,1.42c1.06,0.42,1.82,2.84,2.62,4.77 c2.2,5.32,4.51,12.03,5.54,17.11c0.23,1.16,0.86,3.68,0.72,4.71c-0.25,1.84-2.75,3.21-4.03,4.35c-2.34,2.11-3.82,3.96-6.27,5.93 C125.31,136.1,123.18,135.12,122.37,133.93L122.37,133.93z M66.98,185.34c-2.76-3.04-2.18-8.73-1.85-12.79 c4.99,3.14,11.62-0.25,11.56-5.59c2.38,0.06,0.89,2.98,0.46,4.85c-1.41,6.13,2.37,12.79,0.17,18.4 C73.04,189.89,69.53,188.14,66.98,185.34L66.98,185.34z M86.75,202.98c-6.25-1.77-14.27-6.32-16.84-11.93 c1.99,0.29,3.37,1.29,5.33,1.42c0.74,0.05,1.71-0.31,2.57-0.1c1.7,0.42,3.13,4.23,4.41,5.65c1.25,1.38,2.75,1.98,3.78,3.24 c0.66,0.32,1.64,0.3,1.67,1.29C87.39,202.84,87.09,203.08,86.75,202.98z M119.3,201.31c-6.49,3.66-17.48,6.42-24.38,2.97 c-5.57-2.78-13.1-7.37-15.67-13.2c2.4-5.62-0.71-10.77-0.91-16.48c-0.11-3.04,1.43-5.69,1.55-8.99 c-0.82-1.35-3.33-1.52-5.06-1.43c-0.58,2.92-1.61,6.21-4.62,6.54c-4.26,0.47-7.38-3.06-7.57-6.74 c-0.23-4.33,3.33-11.52,8.37-11.02c1.95,0.19,2.43,2.15,4.55,2.12c1.15-2.29-1.77-3.02-2.08-4.66 c-0.08-0.42,0.24-2.08,0.43-2.86c0.92-3.78,2.96-8.68,4.97-11.56c2.55-3.65,7.56-4.2,12.95-4.56c0.96,2.07,4.51,1.9,6.82,1.36 c-2.77,1.1-5.34,3.76-7.48,6.11c-2.45,2.7-4.93,5.6-5.06,9.13c4.63-6.43,8.46-12.04,16.88-14.87 c6.37-2.14,13.82,0.98,18.71,4.42c2.03,1.43,3.25,3.7,4.69,5.77c5.4,7.77,7.93,18.87,7.37,29.63 c-0.23,4.44-0.22,8.86-1.71,11.84c-1.56,3.12-6.82,5.91-9.9,3.09c-0.57,3.03,2.56,4.91,6.24,3.82 C125.78,195.14,123.03,199.21,119.3,201.31L119.3,201.31z M131.39,101.23c5.07,2.52,14.55,6.79,17.73-0.01 c1.17-2.51,2.55-6.74,3.16-9.33c0.86-3.65-0.93-11.32-4.68-12.54c-3.31-1.08-7.18-1.02-11.17-0.21 c-0.47,0.39-0.99,1.07-1.36,1.78c-2.85,0.11-5.52-0.15-7.77-1.32c0.21-2.11-1.21-2.44-2.55-2.88 c-0.99-3.93,1.98-9.05,1.27-12.64c-0.51-2.55-3.65-2.95-5.95-3.42c-0.08-1.42,0.1-2.6,0.26-3.8c-0.53-1.94-2.89-3.05-5.13-3.32 c-7.38-0.89-18.57-1.29-25.67,1.27c-1.98,4.86-3.54,10.76-5.19,16.31c-6.92-0.74-12.51,2.99-17.79,5.43 c-1.83,0.85-4.35,1.31-5.04,2.77c-0.66,1.41-0.39,4.11-0.55,6.65c-0.42,6.51-0.78,12.79-2.49,19.45 c-0.77,2.99-2.12,5.63-3.06,8.51c-0.87,2.67-2.38,5.97-2.78,8.63c-0.59,3.95,3.13,4.17,5.51,5.88 c3.67,2.64,6.56,4.11,10.54,6.49c1.18,0.71,4.73,2.5,5.14,3.32c0.8,1.63-1.38,3.94-1.96,5.22c-0.92,2.03-1.4,3.75-1.54,5.74 c-3.34,0.53-5.87,2.51-7.4,4.75c-2.53,3.71-4.28,10.56-2.09,15.78c0.17,0.41,1.03,1.22,1.15,1.85c0.25,1.24-0.47,2.89-0.51,4.22 c-0.23,6.78,1.15,12.62,5.71,14.67c1.85,7.38,8.48,9.84,14.73,13.5c2.34,1.37,4.91,2.25,7.57,3.23 c9.54,3.51,24.17,2.85,32.09-3.14c3.36-2.54,8.72-7.9,10.64-11.78c5.07-10.25,4.71-27.37,1.16-39.84 c-0.48-1.67-1.17-4.13-2.13-6.14c-0.67-1.4-2.76-4.21-2.51-5.45c0.26-1.28,4.77-4.7,5.74-5.64c1.74-1.68,5.05-3.91,5.31-6.03 c0.29-2.25-0.99-5.34-1.64-7.52C135.97,114.42,133.85,107.7,131.39,101.23" class="st18" inkscape:connector-curvature="0"/><path id="path132" d="M97.55,151.49c0.28,0.37,1.79,0.92,3.9-0.1 c0,0-2.51-0.42-2.3-4.6l-1.05,0.21C98.11,147.01,97.03,150.8,97.55,151.49" class="st11" inkscape:connector-curvature="0"/><path id="path134" d="M115.88,115.54c0-0.63-0.51-1.15-1.15-1.15 c-0.63,0-1.15,0.51-1.15,1.15c0,0.63,0.51,1.15,1.15,1.15C115.37,116.69,115.88,116.18,115.88,115.54" class="st20" inkscape:connector-curvature="0"/><path id="path136" d="M117.03,110.21c0-0.63-0.51-1.15-1.15-1.15 c-0.63,0-1.15,0.51-1.15,1.15c0,0.63,0.51,1.15,1.15,1.15C116.52,111.36,117.03,110.85,117.03,110.21" class="st20" inkscape:connector-curvature="0"/></g></g><g><path d="M40.86,63.49c2.36-0.1,4.85,0.34,7.01,1.55l0.82,0.43c0.28,0.14,0.51,0.35,0.76,0.53 c0.5,0.37,1,0.74,1.48,1.15c0.44,0.44,0.87,0.9,1.3,1.35c0.44,0.45,0.75,0.99,1.13,1.48c1.4,2.05,2.32,4.39,2.74,6.77 c0.39,2.38,0.38,4.83-0.41,7.12c-0.88-2.23-1.71-4.26-2.6-6.21c-0.9-1.94-1.9-3.75-3.03-5.43c-0.54-0.87-1.21-1.62-1.83-2.43 c-0.71-0.71-1.34-1.54-2.15-2.19C44.59,66.11,42.78,64.98,40.86,63.49z" class="st6"/></g><g><path d="M122.3,15.49c1.01-0.11,2.03-0.1,3.05,0c0.5,0.08,1,0.18,1.51,0.3c0.25,0.05,0.51,0.11,0.76,0.18l0.73,0.27 c0.48,0.19,0.97,0.39,1.45,0.61c0.46,0.26,0.9,0.54,1.35,0.82c0.46,0.26,0.86,0.61,1.27,0.96c0.39,0.36,0.82,0.68,1.16,1.1 c1.48,1.55,2.51,3.5,3.06,5.51c0.54,2.02,0.62,4.16-0.04,6.13c-0.79-1.89-1.57-3.55-2.49-5.1c-0.91-1.54-1.9-2.95-3.08-4.19 c-0.25-0.35-0.61-0.61-0.9-0.91c-0.3-0.31-0.6-0.61-0.95-0.88c-0.33-0.28-0.67-0.56-1-0.86c-0.37-0.25-0.72-0.51-1.09-0.78 l-0.54-0.42l-0.58-0.36c-0.39-0.25-0.78-0.51-1.17-0.78C124,16.56,123.14,16.13,122.3,15.49z" class="st6"/></g><g><path d="M208.81,64.74c2.77-0.12,5.68,0.39,8.21,1.82l0.97,0.51c0.32,0.17,0.59,0.41,0.89,0.62 c0.59,0.43,1.17,0.87,1.73,1.35c0.52,0.51,1.01,1.05,1.52,1.58c0.52,0.52,0.88,1.16,1.33,1.74c1.64,2.41,2.72,5.14,3.21,7.93 c0.46,2.78,0.44,5.65-0.48,8.34c-1.04-2.6-2-4.99-3.05-7.27c-1.05-2.28-2.22-4.39-3.55-6.36c-0.63-1.02-1.41-1.89-2.14-2.84 c-0.84-0.83-1.57-1.8-2.52-2.57C213.18,67.81,211.06,66.49,208.81,64.74z" class="st6"/></g></g></switch></svg>