<svg xmlns="http://www.w3.org/2000/svg" xmlns:xlink="http://www.w3.org/1999/xlink" style="enable-background:new 0 0 151.22 182.78" id="Слой_1" x="0" y="0" version="1.1" viewBox="0 0 151.22 182.78" xml:space="preserve"><style type="text/css">.st0{fill:#cacaca}.st1{fill:#fff}.st2,.st3{stroke:#000;stroke-miterlimit:10}.st3,.st4{fill:none}.st5,.st6,.st7,.st8{stroke:#000;stroke-miterlimit:10}.st5{fill:none;stroke-width:.5}.st6{fill:#404b86}.st7{fill:#e64c43}.st8{fill:#fff}.st9{fill:#f7d5b7}.st10{fill:#6f6c6e}.st11{fill:#dedad8}.st12{fill:#fce3cc}.st13{fill:none;stroke:#e64c43}.st14{stroke:#99999a;stroke-width:2;stroke-linejoin:round;stroke-miterlimit:10}.st15{opacity:.39;fill:#5b5753}.st16{fill:#999797}.st17{fill:#e64c43}.st18{fill:#d44f45}.st19{fill:none;stroke:#000;stroke-width:2}.st20{stroke-linejoin:round}.st20,.st21{fill:none;stroke:#000;stroke-width:2;stroke-miterlimit:10}</style><switch><g><g><g><path d="M20.52,174.19l6.47-3.34l16.74-2.76c-0.28-3.38-0.34-4.06-0.54-5.69c-0.41-3.31-1.99-5.47-1.71-11.53 c0.13-2.91,2.83-14.09,5.09-16.1c2.03-1.8,1.25-4.21,3.92-4.63c2.8-0.44,10.15,5.03,11.08,6.2c0.3,0.38,4.11,6.6,4.11,6.6 s7.49-1.38,10.03-1.47c-0.58-0.17-0.78-7.46-0.64-8.1c0.38-1.69,0.6-3.84,2.15-4.9c0.94-0.65,2.18-0.71,3.29-0.44 c2.38,0.59,4.14,1.16,6.49,1.8c5.74,1.58,11.42,16.22,13.04,18.16c0.55,0.66-3.75-0.63-3.75-0.63s0.61,6.58,0.62,6.58 c3.51-1.21,15.11-2.46,18.63-3.68c-0.15-1.59-0.62-6.63-0.62-6.63s-2.74,2.48-3.91,1.11c-5.18-6.04-15.93-18.9-21.31-24.74 c-2.22-2.41-5.68-5.52-4.89-7.52c1.46-3.69,1.65-4.86,1.65-4.86l-5.56-0.89l-6.85-11.19l-5.71-10.46 c-4.2-12.06-7.85-23.99-9.71-36.72c-1.03-7.04-2.88-13.73-2.92-20.82c-0.76-4.01,0.36-11.58,0.36-11.58s-8.97-1.82-8.98-1.79 c-0.43,1.65-1.01,10.14-1.01,10.14l1.3,1.86c0,0,0.2,14.78,0.19,18.76c-0.01,5.73-0.13,11.36-0.89,17.08 c-0.41,3.07-1.13,12.97-1.69,16.02l-4.41,4.48l-2.09,11.81l-7.39,19.55l-1.14,0.76l-0.04,4.72l-3.41,10.38 c0.7-0.45-10.69,21.17-10.69,21.17l-1.79-0.03l-0.1,4.1l1.13,3.55l5.44-0.51c0,0-0.2,0.54-1.42,2.76l-0.71,6.01L20.52,174.19z M53.87,102.73c0.03-0.46,1.55-20.06,1.55-20.06c1.42-0.49,2.98,0.29,4.49,0.62c1.21,0.26,2.41,0.53,3.62,0.79 c1.02,3.47,1.83,7.09,3.08,10.48c0,0.01,4.73,12.75,4.73,12.75c-0.21-0.57-4.02-1.39-4.61-1.6c-1.52-0.53-9.79,0.06-12.06-0.36 C53.73,105.19,53.88,102.66,53.87,102.73z" class="st0"/><polygon points="84.87 126.33 73.97 121.31 74.62 120.19 80.8 120.36 83.73 121.5 85.3 125.13" class="st1"/><polygon points="115.27 147.55 115.58 150.84 101.24 155.51 96.91 153.94 96.63 151.04 101.09 152.2"/><polygon points="114.91 143.63 115.17 146.45 100.84 151.28 96.54 150.1 96.29 147.36 100.58 148.46"/><path d="M31.34,127.71c0.39,0.75,0.32,1.65,0.21,2.49c-0.58,4.41-2.32,8.34-4.01,12.4l0.73,0.25l-2.92,6.76l-6.21,12.78 l2.51,2.48l16.68-41.94l10.68,0.1c-0.86,2.34-8.6,20.91-9.73,24.31l-1.59,7.5l-0.78,6.09l5.99-1.53 c-0.73-2.28-1.52-3.91-1.34-6.37c0.3-4.12,1.67-8.52,3.04-12.4c0.67-1.91,1.47-3.79,2.45-5.57c0.3-0.55,2.84-5.13,3.44-4.94 c0.62,0.19,1.46,0.46,1.51,0.47c2.87,0.9,5.61,2.37,7.73,4.53c2.23,2.27,3.28,4.93,3.87,7.99l2.08-0.2c0,0-0.33-1.34-0.35-1.42 c-1.39-5.7-7.64-10.52-13.37-11.29c-0.28-0.04-0.73,0-0.97-0.13c-0.54-0.28-0.08-0.51,0.3-0.86c0.73-0.67,1.54-1.27,2.37-1.82 c1.91-1.24,4.02-2.35,6.14-3.15c3.25-1.23,6.82-1.82,10.32-1.57c3.65,0.26,6.67,1.61,9.89,3.2l4.43,2.99 c-1.14-0.47-2.3-0.88-3.47-1.24c-1.79-0.54-3.88-0.89-5.39,0.21c-1.11,0.82-1.59,2.24-1.76,3.61c-0.28,2.3-0.02,5.23,0.67,7.45 c0.27,0.86,0.54,1.73,0.81,2.59c0.63-0.05,1.27-0.11,1.9-0.16c-1.12-2.69-1.62-5.64-1.45-8.55c0.06-1.06,0.25-2.2,0.99-2.97 c1.18-1.24,3.61-1.21,5.17-0.87c1.23,0.27,2.42,0.69,3.67,0.81c0.23,0.02,0.78,0.73,0.94,0.89c0.49,0.47,1.01,0.9,1.52,1.35 c1.09,0.98,2.11,2.04,3.05,3.17c2.47,2.97,4.39,6.38,5.4,10.12c0.07,0.27,0.46,2.55,0.7,2.62l4.6,1.36l-3.03-7.13l-3.26-6.1 l-2.62-3.47l-2.66-3.07l-3.5-4.41l-2.4-2.86l-0.62-0.73l6.41,0.03l8.36,9.88l5.06,5.93l7.16,8.28l1.86-0.67l-5.75-5.7 l-4.68-5.17l-5.22-5.91l-4.76-6.03l-4.65-5.73l-2.15-2.72l-0.18-1.96l2.17-2.97l-0.18-1.96l-44.88-3.21l-12.32,11.04l0.07,0.71 l12.94-9.52l42.95,2.83l-0.68,2.04l-43.74-2.76l-11.54,10.1l-0.5,2.26l-2.15,4.87l-4.1,9.4l-5.37,11.81l-2.02,4.54l1.08,2.27 c0.39-0.92,0.77-1.84,1.16-2.76c1.47-3.51,2.95-7.03,4.42-10.54c1.49-3.55,2.63-7.62,5.38-10.4c0.74-0.75,1.63-1.51,2.62-1.72 C30.77,127.69,31.05,127.67,31.34,127.71z M82.06,119.32l-4.82-5.98l6.3,0.21l4.67,5.5L82.06,119.32z M53.01,119.99l2.59-7.52 l19.07,0.6l4.99,6.78L53.01,119.99z M39.36,119.63l2.99-7.67l10.94,0.32l-3.01,7.82L39.36,119.63z M36.5,120.23l-6.72,2.28 l1.53-3.63l7.67-5.37L36.5,120.23z M31.4,125.98c-0.57,0-1.09,0.27-1.57,0.57c-1.02,0.64-1.93,1.45-2.83,2.26 c0.24-0.55,1.42-4.31,1.91-4.42l6.61-1.48l-2.15,5.79l-0.3-1.21c-0.27-0.56-0.54-1.15-1.07-1.39 C31.82,126.03,31.62,125.98,31.4,125.98z"/><path d="M36.06,107.82l1.72-1.49c0,0,3.33-14.54,3.89-17.69C40.59,92.86,36.06,107.82,36.06,107.82z" class="st2"/><path d="M40.58,103.99c0.97-3.75,4.36-15.86,4.72-18.18l-3.4,17.02C41.89,102.83,41.07,103.66,40.58,103.99z" class="st2"/><polyline points="110.76 145.03 97.78 140.25 97.03 129.68 83.73 121.5 90.14 121.53 90.98 130.34 104.59 138.53 100.04 147.99" class="st3"/><polyline points="97.78 140.25 104.59 138.53 97.03 129.68 90.98 130.34" class="st3"/><polyline points="49.02 123.03 32.25 138.63 39.05 148.51 22.88 162.8 27.64 150.53 43.14 136.87 38.34 122.93" class="st3"/><polyline points="37.68 160.75 27.64 150.53 39.05 148.51 43.14 136.87 32.25 138.63" class="st3"/><polygon points="43.44 164.93 43.73 168.09 20.22 175.35 18.79 170.9 18.4 166.78 20.88 170.91"/><polygon points="43.2 162.4 42.92 159.42 20.95 164.07 19.11 160.77 19.23 165.5 20.66 168.57"/><polygon points="20.52 158.01 15.09 158.52 13.95 154.97 14.03 153.42 15.27 156.27 20.34 156.02"/><polygon points="20.79 155.38 15.45 155.67 14.22 152.74 14.05 150.87 15.47 153.67 20.62 153.54"/><polyline points="64.9 89.1 71.22 89.9 73.55 95.3 66.61 94.56 68.81 100.5 76.57 101.04" class="st3"/><polyline points="52.75 102.6 46.06 97.87 54.2 93.21 48.5 86.77 54.43 83.29 49.18 82.22 54.46 88.11 47.47 92.1 53.71 98.96 44.99 102.28" class="st4"/><polyline points="48.27 86.69 55.26 87.95 54.98 93.34 46.67 91.97 45.3 97.76 54.46 99.07" class="st3"/><polyline points="85.22 115.17 85.62 119.39 82.37 119.61 81.9 113.16 79.01 113 79.32 116.26 77.3 116.3 77.62 120.18 74.62 120.19 74.18 112.67 71.15 112.57 71.57 120.18 68.53 120.2 68.14 112.47 64.76 112.37 65.05 120.33 61.61 120.35 61.11 112.25 57.67 112.14 58.1 120.25 54.81 120.38 54.69 114.61 50.32 120.5 49.77 120.47 50.3 111.9 46.82 111.69 46.26 120.32 42.87 120.17 43.53 111.6" class="st3"/><line x1="64.35" x2="65.26" y1="78.76" y2="82.51" class="st3"/><line x1="58.97" x2="58.59" y1="81.36" y2="77.71" class="st3"/><line x1="52.18" x2="52.34" y1="80.18" y2="76.43" class="st3"/><path d="M31.1,113.87l2.3-1.91l1.15-3.22c1.46-4,2.92-7.98,4.03-12.1c0.43-1.59,0.82-3.19,1.16-4.8 c0.16-0.75,0.3-1.49,0.49-2.23c0.05-0.2,0.1-1.1,0.28-1.23c1.91-1.38,3.81-2.76,5.72-4.15c0.19-0.14,0.42-0.34,0.61-0.42 c-0.22,0.64-2.99,14.7-3.78,17.63c-0.12,0.44-0.63,2.49-0.75,2.93c0.66-0.05,2.01-0.26,2.67-0.3 c0.19-0.02,3.57-17.59,3.57-17.59l0.62-4.27l5.54,1.13c0.14,0.03-0.29,5.19-0.31,5.58c-0.13,2.95-0.89,14.62-1.42,16.24 l2.67,0.3l0.43-22.18l7.16,1.65c0,0,4.15,16.38,6.18,21.25l2.63,0.1l-7.81-21.16l4.28,0.7l2.02,4.3l3.65,7.84l4.28,8.66 l3.18,0.13c-1.11-1.46-2.74-3.98-3.62-5.6c-1.56-2.85-3.12-5.7-4.71-8.52l-5.06-10.47l-0.63-1.31l1.91-1.91l-0.16-1.71 l-2.54-0.99c0,0-0.37-0.07-0.99-0.19c-0.36-1.16-1.22-3.89-1.22-3.89c-3.08-9.84-4.8-20.07-6.61-30.2 c-0.1-0.53-0.2-1.07-0.29-1.6c-0.76-4.7-1.45-9.4-2.06-14.12l-0.87-0.5c0.88,9.39,2.57,18.63,4.16,27.92 c0.13,0.78,0.27,1.57,0.4,2.35l1.98,9.95l1.92,9.6c-0.85-0.16-1.81-0.35-2.82-0.54c-0.83-4.57-5.47-30.28-5.47-30.28 c-0.59-3.24-1.08-6.49-1.48-9.75c-0.41-3.35-0.93-6.71-1.15-10.08c-0.23-0.06-0.49-0.18-0.49-0.18s0.16,1.31,0.18,1.46 c0.45,3.54,0.87,7.09,1.22,10.64c0.37,3.87,0.6,7.74,0.67,11.63c0.05,2.59,0.1,5.18,0.15,7.77c0.01,0.6,0.02,1.19,0.03,1.79 l-0.02,8.01l-0.1,5.99l-0.12,1.75c-1.56-0.3-2.92-0.56-3.81-0.73l-0.1-3.67l0.16-13.15c-0.11-8.21-0.3-16.43-0.68-24.63 l-0.22-7.15l-0.85,1.29l0.42,6.07l0.23,6.97l0.12,6.74c-0.2,9.24-0.49,18.48-0.89,27.71c-0.06,0.05-0.12,0.1-0.18,0.16 l-1.47,0.12c1.05-10.73,1.41-21.66,1.32-32.39l-0.09-8.99l-0.14-6.16l1.59-2.26l6.69,1.78l-0.51-1.22l-6.32-1.44l-2.32,3.74 l0.11,0.78L47.17,27c0,0.01,0,0.02,0,0.03c-0.06,12.63-0.06,25.24-1.51,37.81c0,0-0.76,6.61-0.76,6.61l-1.06,6.09 c-1.65,1.86-3.05,3.93-4.54,5.97l0.16,1.68l0.76-0.66c0,0-0.56,2.76-0.57,2.77c-0.23,1.13-0.34,2.26-0.58,3.39 c-0.31,1.49-0.63,2.97-1.01,4.44C36.06,102.94,31.1,113.87,31.1,113.87z M67.51,80.54c0.05-0.09-0.77-1.05-0.85-1.17 c-0.04-0.06,0.98-1.25,1.06-1.35c0.2,0.3,0.41,0.62,0.43,0.98C68.19,79.57,67.77,80.04,67.51,80.54z M62.39,78.88l3.48,0.51 l1.06,3.02l-3.83-0.53L62.39,78.88z M55.43,80.42l-0.01-2.86l6.17,1.09l0.61,2.75l0.05,0.22L55.43,80.42z M49.5,79.37l0.21-2.94 l4.9,0.81l0.05,2.94L49.5,79.37z M40.82,83.78l6.98-6.85l-0.29,3.09l-6.54,5.35L40.82,83.78z"/><polyline points="55.28 28.83 48.96 27.42 49.06 31.42 56.14 32.84 56.51 36.28 49.24 34.91 49.41 39.42 57.33 40.95 58.1 45.9 49.56 44.57 49.49 50.17 59.35 52.16 60.49 59.91 49.63 57.76 49.41 64.94 62.16 66.94 63.7 73.34 49.41 70.97" class="st5"/><polyline points="46.27 72.86 48.73 71.19 48.89 64.63 46.76 66.52 47.15 59.28 49.11 57.35 49.24 50.08 47.31 51.93 47.68 45.62 49.41 44.27 49.23 39.09 47.54 41 47.5 36.45 49.06 35.12 48.85 31.46 47.57 33.06 47.56 29.15 48.64 27.78" class="st5"/><path d="M56.06,15.96c-0.53,0.09-1.05,0.18-1.58,0.25c-0.93,0.12-1.88-0.07-2.78-0.31c-1.6-0.42-3.1-1.06-4.62-1.72 c0.8-0.29,1.54-0.57,2.15-1.19c0.79-0.82,1.01-1.75,1.11-2.84l0.7,0.38c0.24,1.25,0.57,2.32,1.47,3.27 c0.77,0.83,1.84,1.65,2.93,1.98L56.06,15.96z"/><polygon points="56.13 22.62 57.37 20.9 56.22 19.78 48.46 17.48 47.24 18.02 45.47 24.06 45.67 24.92 46.84 25.37 46.47 23.97 47.86 19.12 48.64 18.38 55.59 20.68 56.44 21.43"/><path d="M49.99,19.1c-0.2,0.69-0.4,1.39-0.42,2.11c-0.01,0.48,0.06,0.96,0.13,1.44c-0.19,0.06-0.39,0.12-0.58,0.18 c-0.44-0.89-0.87-1.78-1.31-2.68c0.28,0.57,0.74,1.09,1.09,1.62C49.11,20.79,49.48,19.97,49.99,19.1z"/><path d="M54.56,23.92c0.25-1.79,0.78-2.86,0.75-3.09c0.03,0.33-0.06,0.72-0.08,1.05c-0.05,0.72-0.04,1.43-0.05,2.15 C55.18,24.03,54.56,23.93,54.56,23.92z"/><path d="M55.93,16.95c0.11,0.28,0.15,2.81,0.29,2.83c0,0-0.79-0.1-0.79-0.1C55.52,19.68,55.87,17.21,55.93,16.95z"/><path d="M46.07,22.45c0.06-0.05,0.01-0.62,0.01-0.72c0-0.28,0.01-0.55,0.01-0.83c0.01-0.51,0.02-1.01,0.06-1.52 c0.09-1.08,0.19-2.16,0.31-3.23c-0.08,0.34,0.03,0.82,0.04,1.16c0.01,0.38,0.02,0.76,0.03,1.15c0.01,0.84,0.02,1.68,0.01,2.51 C46.55,21.51,46.51,22.13,46.07,22.45z"/><path d="M56.06,15.96c-0.01,0.57-0.21,1.17-0.7,1.45c-0.48,0.27-1.11,0.26-1.66,0.25c-1.46-0.03-2.93-0.49-4.2-1.19 c-1.03-0.57-1.99-1.26-2.95-1.95c0.62,0.43,1.31,0.72,1.98,1.05c0.62,0.29,1.22,0.62,1.84,0.89c0.57,0.26,1.25,0.38,1.87,0.46 C53.58,17.1,54.9,16.68,56.06,15.96z"/><polyline points="54.09 19.78 53.82 24.16 52.36 23.83 52.48 19.25 50.7 18.89 50.62 23.32" class="st3"/><polygon points="47.91 15.68 48.22 17.59 47.89 17.9"/><polygon points="51.27 12.34 50.82 6.95 50.06 6.79 50.56 11.96" class="st3"/></g><g><path d="M68.78,27.13v0.54c0,0.68,0.6,1.23,1.35,1.23h0.83c0.74,0,1.35-0.55,1.35-1.23v-0.54H68.78z" class="st2"/><path d="M69.34,27.13c-0.82-0.55-12.29-8.89-8.74-17.04c2.05-4.69,10.33-4.58,10.33-4.58l-0.05,21.62H69.34z" class="st6"/><path d="M72.13,27.13c0.82-0.55,12.29-8.89,8.74-17.04C78.82,5.4,70.53,5.51,70.53,5.51l0.05,21.62H72.13z" class="st7"/><path d="M70.31,5.49c0.17-0.11,10.78,1.69,0.98,21.66c-0.53-0.02-1.6-0.06-1.6-0.06 C62.65,8.71,67.54,7.28,70.31,5.49z" class="st8"/></g><g><path id="path28_2_" d="M109.03,107.23l-6.92,6.48l-8.05,0.83l-9.95-2.36l-5.39-1.25l-3.95-2.98l-4.17-4.53 l-3.26-9.24l-0.72-1.99l-4.35-1.45l-2.54-4.17l-1.81-5.98l1.99-5.26l4.71-1.63l3.81,1.81l1.81,3.99l2.18-0.36l0.72-0.91 l-0.72-4.17l-0.18-5.26l1.09-7.25l-0.04-4.14l3.31-5.28l5.8-4.17l10.15-4.35l11.24,1.63l9.79,7.07l4.53,7.25l2.9,5.26 l0.72,13.05l-2.18,11.24l-3.99,9.97l-3.81,5.26L109.03,107.23z" class="st9"/><path id="path32_2_" d="M59.91,75.33l4.71-1.63l3.81,1.81l1.81,3.99l2.18-0.36l0.54-2.18l-1.09-4.17l1.09-9.97 l-0.91-5.44l3.26-3.81l7.07-5.62l-1.99-2.72l-9.97,4.89l-4.17,3.26l-2.36,5.08l-3.63,4.89l-1.09,5.8L59.91,75.33" class="st10"/><path id="path34_2_" d="M67.34,58.29c0,0,2.72-6.71,13.59-9.97s0.54-2.36,0.54-2.36L69.7,50.5l-4.53,4.53 l-1.99,3.63L67.34,58.29" class="st11"/><path id="path36_2_" d="M61.9,74.06c0,0-3.81-12.69,10.69-14.5l-0.54-2.18l-9.97,2.36l-2.9,9.43l0.73,6.16 L61.9,74.06" class="st11"/><path id="path38_2_" d="M67.7,90.92l2.37-2.3c0,0,1.07,0.12,1.25,1.39c0.18,1.27,0.72,12.69,8.52,18.85 c0.71,0.56-5.8-0.91-5.8-0.91l-5.8-9.06" class="st12"/><path id="path40_2_" d="M101.05,87.47c0,0,0.42-5.49,1.9-5.07c1.48,0.42,1.48,1.9,1.48,1.9 S100.84,86.63,101.05,87.47" class="st12"/><path id="path42_2_" d="M116.1,67.35c0,0-2.99,0.63-3.26,3.26c-0.28,2.63,3.26,0.54,3.81,0.36" class="st12"/><path id="path44_2_" d="M94.17,67.53c0,0-3.99,0.54-3.99,3.08c0,2.54,4.53,2.36,5.8,1.27" class="st12"/><path id="path46_2_" d="M69.51,79.32c0,0-6.89-4.17-7.61-0.18c-0.72,3.99-2.36,6.89,1.09,11.06l-2.36-0.72 l-2.18-5.62l-0.72-5.44l4.17-4.35l4.71,0.36l2.72,2.18L69.51,79.32" class="st12"/><path id="path48_2_" d="M72.78,67.9c0,0,3.08-15.95,18.67-19.03c12.83-2.54,19.58,0.54,22.11,3.44 c0,0-11.42-13.59-22.29-9.43C80.39,47.05,72.41,54.66,72.6,59.56C72.9,67.89,72.78,67.9,72.78,67.9" class="st12"/><path id="path50_2_" d="M114.83,54.12c0,0-5.26-0.18-5.44,4.53c0,0,0,0.72,0.36,1.45c0,0,4.17-4.71,6.71-2.18" class="st12"/><path id="path52_2_" d="M91.81,60.59c0,0-0.9-7.23-7.07-3.03c-3.99,2.72-3.62,6.53-2.9,7.25 c0.72,0.73,0.53,2.19,1.08,1.18c0.55-1,0.37-4.26,2.36-5.17C87.28,59.92,90.55,58.91,91.81,60.59" class="st12"/><path id="path72_2_" d="M113.14,153.81l7.07-1.99l13.41-0.72l1.99-6.16l-3.63-10.69l-4.17-0.54l-5.8,1.81 l-5.56,2.72l-2.95-0.54l-2.3,0.9" class="st1"/><path id="path74_2_" d="M113.02,150.19c0,0,4.71-2.17,5.44-1.99l-1.99-9.97l2.36-0.91c0,0,1.63,9.43,1.63,10.51 c0,0,10.15,0.54,11.06,0.54c0,0,2.18-4.17,1.63-8.52l1.99,5.8l0.18,3.26l-2.9,4.35l-3.26,0.72l-5.44-0.18l-1.81-2.36l-6.34,0.91 l-1.99,0.73" class="st11"/><path id="path86_2_" d="M113.12,119.27c-3.08-0.09-5.85-0.46-8.29-1.14c0.17-1-0.14-1.98,0.1-2.69 c0.68-0.49,1.81-0.48,2.84-0.6c-0.89-0.44-2.13-0.61-3.15-0.36c-0.02-0.69-0.33-1.12-0.52-1.66c1.73-0.62,5.81-4.66,8.11-3.32 c1.09,0.64,1.56,4.28,1.64,6.05C113.93,117.01,113.72,118.49,113.12,119.27z" class="st13"/><path id="path94_2_" d="M100.17,117.59c-0.27-1.53-0.58-1.97-0.46-3.3C103.79,111.57,104.55,118.96,100.17,117.59z" class="st13"/><path id="path100_2_" d="M91.81,60.59c-4.94-1.15-7.4,2.07-8.89,5.41c-1.34-0.32-0.81-2.14-0.47-3.07 c0.88-2.43,4.45-5.67,7.36-5.23C91.06,57.89,92.76,59.03,91.81,60.59"/><path id="path102_2_" d="M115.88,66.22c0.08,0,0.16,0.01,0.23,0.01c1.12,2.32,2.08,4.78,3.49,6.82c-0.94,2.2-7.14,4.14-7.05,0.2 c1.34-0.59,3.66-0.12,4.84-0.87C116.72,70.49,115.73,68.89,115.88,66.22"/><path id="path104_2_" d="M94.34,66.28c1.06,1.94,1.4,3.98,2.91,5.45c0.68,0.66,2,1.47,1.34,3.3c-0.15,0.43-1.27,1.4-1.91,1.59 c-2.35,0.69-7.84,0.14-5.98-2.79c1.95,0.09,4.56,1.26,6.02-0.15C95.6,71.9,93.61,68.36,94.34,66.28"/><path id="path106_2_" d="M115,86.01c-3.54,2.28-7.5,4.75-13.3,4.18c-1.24-1.08-1.71-3.48-0.51-5.07 c0.63,1.08,0.23,3.06,1.98,3.36c3.3,0.56,7.13-2.02,9.5-2.92c1.47-2.48-0.13-3.39-1.45-4.98c-2.71-3.27-6.35-7.32-6.21-12.21 c1.1-0.79,1.19,1.21,1.35,1.58c1.42,3.31,4.98,7.55,7.58,10.38c0.64,0.7,1.69,1.37,1.81,1.83 C116.07,83.51,114.86,85.12,115,86.01"/><path id="path108_2_" d="M68.27,83.62c-1.11-0.63-1.38-3.43-2.68-3.51c-1.86-0.11-1.52,3.62-1.52,5.81 c-1.28-1.16-1.51-4.75-0.57-6.59c-1.07-0.53-1.55,0.58-2.15,0.97C62.13,74.74,69.5,77.72,68.27,83.62"/><path id="path114_2_" d="M93.48,93.39c2.14,5.36,9.47,4.74,15.66,4.6c-0.27,0.7-0.86,1.52-1.6,1.82 c-1.98,0.81-7.45,1.42-10.21-0.04c-1.75-0.93-2.87-3.03-3.82-4.26C93.05,94.91,90.75,93.4,93.48,93.39"/><path id="path118_2_" d="M128.23,138.39c-2.81,0.56-4.78,3.29-7.51,3.11C122.22,139.38,124.85,138.49,128.23,138.39"/><path id="path120_2_" d="M129.46,142.78c-2.29,0.24-4.97,0.61-7.29,0.42C123.27,141.53,127.5,142.1,129.46,142.78"/><path id="path122_2_" d="M130.26,146.57c-2.57,0.06-5.76,0-8.21-0.2C123.49,144.81,128.59,145.79,130.26,146.57"/><path id="path124_2_" d="M109.91,156.93c0.37,3.23,1.65,6.5,1.49,10.03c-1.42,0.48-2.24,0.9-4.14,0.9 c-0.13-3-0.54-7.6-0.42-10.46C107.77,157.46,109.15,156.72,109.91,156.93" class="st11"/><path id="path132_2_" d="M89.15,91.74c0.24-0.32,1.55-0.8,3.39,0.08c0,0-2.18,0.36-1.99,3.99l-0.91-0.18 C89.63,95.63,88.7,92.34,89.15,91.74" class="st12"/><path id="path30_2_" d="M101.43,157.57l-22.78,2.9l-18.16-6.18l-1.27-2.18l-1.82-20.52l-4.18-12.35l-0.91-2.91 l14.53-9.99l4.54-1.82l4,4.9l3.45,3.09l4,1.27l1.82,0.54l19.21-0.59l12.94-10.49l8.17,8.13l-6,20.47l-5.48,23.34L101.43,157.57z" class="st1"/><line x1="52.31" x2="124.4" y1="116.52" y2="116.07" class="st14"/><line x1="53.6" x2="122.95" y1="121.96" y2="121.53" class="st14"/><line x1="55.21" x2="120.91" y1="127.4" y2="127" class="st14"/><line x1="57.22" x2="118.68" y1="132.84" y2="132.47" class="st14"/><line x1="58.1" x2="117.15" y1="138.29" y2="138.14" class="st14"/><line x1="58.73" x2="73.55" y1="143.92" y2="140.15" class="st14"/><line x1="107.41" x2="124.19" y1="110.73" y2="110.63" class="st14"/><path id="path54_2_" d="M75.38,109.44l-17.07,7.63c0,0,7.08,28.15,3.45,36.87l-2.54-0.91l-0.18-10.72l-4.72-20.34 l-2-5.63l17.8-11.99L75.38,109.44" class="st15"/><line x1="58.48" x2="80.65" y1="111.03" y2="111.03" class="st14"/><path id="path60_2_" d="M111.25,137.37l6.3,0.26l1.89,14.55l-5.61,1.58L111.25,137.37" class="st16"/><line x1="59.44" x2="74.4" y1="151.56" y2="139.78" class="st14"/><line x1="66.14" x2="74.93" y1="155.8" y2="140.15" class="st14"/><line x1="74.4" x2="74.4" y1="159.67" y2="139.78" class="st14"/><line x1="108.3" x2="107.39" y1="156.84" y2="138.68" class="st14"/><path d="M69.72,141.38c-0.29,0.04-1.08,1.58-1.27,1.86c9.22,1.03,18.5,1.41,27.75,0.75 c6.22-0.44,12.45-0.88,18.67-1.32c0.12-0.01,2.28-0.17,2.28-0.16l-0.38-3.92C116.77,138.59,70.43,141.34,69.72,141.38z" class="st15"/><path id="path68_2_" d="M82.87,174.48l-3.75-15.23l-1.87-11.24l-0.31-8.34l16.98-0.9l10.57,0l-0.96,19.03 l1.63,14.68l-0.18,2.72l-13.78,1.09L82.87,174.48" class="st1"/><polygon points="124.23 112.12 123.27 115.4 112.87 106.23 114.9 103.07" class="st15"/><path d="M76.52,125.13c-0.06,0.09,1.16,1.64,1.25,1.87c0.37,0.95,0.38,2.02,0.36,3.03 c-0.07,3.22-0.04,6.23,0.56,9.4c-0.9,0.08-1.82,0.17-2.72,0.25v-13.7C75.98,125.98,76.5,125.15,76.52,125.13z" class="st15"/><path id="path70_2_" d="M102.14,138.59c0,0-0.91,18.85,1.81,32.26c0,0-5.44,3.44-13.41,4.35l15.23-0.54l1.81-1.09 l-2.18-29.73l-0.54-6.34" class="st11"/><path id="path130_2_" d="M106.84,157.39c-0.12,2.86,0.28,7.46,0.42,10.46c1.9,0,2.72-0.42,4.14-0.9 c0.16-3.53-1.12-6.8-1.49-10.03C109.15,156.72,107.77,157.46,106.84,157.39z M77.19,141.11c1.26,11.54,3.07,21.24,6.41,31.46 c7.4,2.25,16.32,2.44,22.87,0.42c-1.2-5.77-0.68-12.79-1.38-18.95c-0.53-4.63-0.26-9.28-0.98-14 C96.18,138.39,84.97,139.65,77.19,141.11z M105.98,140.11c-0.07,4.96,0.22,9.85,0.6,14.81c1.9-0.29,3.19-0.48,4.96-0.86 c-0.57-4.78-0.5-10.15-1.67-14.38C108.52,139.69,107.33,139.66,105.98,140.11z M115.63,139.31c-0.9-0.21-1.95-0.01-2.82,0.01 c0.41,4.04,1.39,8.5,1.74,12.74c1.36,0.04,2.08-0.6,3.2-0.81C117.81,147.52,117.43,142.4,115.63,139.31L115.63,139.31z M130.25,152.67c2.83-0.69,4.61-4.15,3.82-7.71c-0.53-2.39-1.48-6.9-2.49-8.43c-0.75-1.13-2.78-2.61-4.4-1.58 c-2.64,1.69-7.28,2.18-9.2,4.22c0.96,3.21,1.26,7.61,1.66,11.68c3.29,0.21,7.34-0.91,10.08,0.27c-1.91,0.62-4.39,0.62-6.04,1.53 C125.03,153.3,128.19,153.17,130.25,152.67L130.25,152.67z M115.3,135.78c0.92-0.36,1.58-2.46,2.27-4.14 c1.91-4.61,3.91-10.43,4.8-14.83c0.2-1,0.75-3.19,0.63-4.08c-0.22-1.6-2.39-2.78-3.49-3.77c-2.03-1.83-3.31-3.43-5.43-5.14 c-0.86,1.27-2.7,2.12-3.41,3.15c0,0-6.48,7.74-7.93,7.82c-22.62,1.28-32.43-8.53-32.89-8.35c-6.03,2.38-11.67,6.49-16.71,10.38 c4.81,10.31,6.75,22.95,7.09,35.12c5.51,2.57,10.34,6.29,17.81,6.67c-0.86-6.12-1.65-11.57-2.14-17.33 c-1.88-0.79-4.57,0.04-6.33-0.25c-0.01-2.12,2.68-0.93,2.91-2.35c0.17-1.08-1.48-1.16-0.95-2.85c1.37,0.5,2.09,1.6,3.56,2.02 c1.34-2.93-0.02-8.11,0.17-10.55c0.04-0.46,0.23-2.55,1.26-2.18c0.91,0.32-0.05,5.55,0.05,7.86c0.09,2.13-0.26,4.2,0.61,5.54 c7.22-0.98,14.55-1.62,22.37-1.83C99.54,136.69,112.8,136.77,115.3,135.78z M62.64,62.4c-2.39,2.64-1.89,7.57-1.6,11.09 c4.33-2.72,10.07,0.22,10.02,4.85c2.07-0.05,0.77-2.58,0.4-4.21c-1.22-5.32,2.06-11.09,0.15-15.95 C67.9,58.45,64.85,59.96,62.64,62.4L62.64,62.4z M79.78,47.1c-5.42,1.54-12.37,5.48-14.6,10.35c1.73-0.25,2.92-1.12,4.62-1.23 c0.64-0.04,1.49,0.27,2.23,0.09c1.47-0.37,2.72-3.67,3.83-4.9c1.08-1.2,2.39-1.71,3.28-2.81c0.57-0.28,1.42-0.26,1.45-1.12 C80.34,47.22,80.08,47.02,79.78,47.1z M102.73,112.89c1.47-0.44,3.61-3.76,4.52-4.98c-3.55,1.91-11.23,1.48-13.19,1.08 c-3.21-0.66-8.6-4.31-10.45-6.35c-2.13-2.34-4.28-4.85-4.39-7.91c4.02,5.57,7.33,10.44,14.64,12.89 c5.53,1.85,11.98-0.85,16.23-3.83c1.76-1.24,2.81-3.21,4.07-5.01c4.69-6.74,6.87-16.36,6.39-25.69 c-0.2-3.85-0.19-7.68-1.48-10.27c-1.35-2.71-5.91-5.13-8.58-2.68c-0.49-2.63,2.22-4.26,5.41-3.31 c-2.27-2.93-4.66-6.46-7.89-8.28l0,0c-5.63-3.18-15.15-5.56-21.14-2.58c-4.83,2.41-11.36,6.39-13.59,11.44 c2.08,4.87-0.62,9.34-0.79,14.28c-0.09,2.63,1.24,4.93,1.34,7.8c-0.71,1.17-2.89,1.32-4.39,1.24c-0.51-2.54-1.39-5.38-4-5.67 c-3.69-0.4-6.39,2.65-6.56,5.85c-0.2,3.76,2.89,9.98,7.26,9.55c1.69-0.17,2.1-1.86,3.94-1.84c1,1.99-1.54,2.61-1.8,4.04 c-0.07,0.37,0.21,1.8,0.37,2.48c0.79,3.28,2.56,7.53,4.31,10.02c2.21,3.17,6.44,4.25,11.47,6.15 C87,112.28,95.64,115.02,102.73,112.89z M118.49,135.32c4.4-2.19,12.61-5.88,15.37,0.01c1.02,2.17,2.21,5.84,2.74,8.09 c0.74,3.16-0.81,9.81-4.06,10.87c-2.87,0.94-6.22,0.88-9.68,0.19c-0.41-0.34-0.86-0.93-1.18-1.54c-2.47-0.1-4.78,0.13-6.73,1.15 c0.18,1.83-1.05,2.12-2.21,2.5c-0.86,3.4,1.72,7.85,1.1,10.95c-0.44,2.21-3.16,2.55-5.16,2.97c-0.07,1.23,0.09,2.25,0.22,3.29 c-0.46,1.69-2.51,2.64-4.45,2.88c-6.39,0.77-16.1,1.11-22.25-1.1c-1.72-4.21-3.07-9.33-4.5-14.14c-6,0.64-10.85-2.59-15.42-4.7 c-1.58-0.73-3.77-1.14-4.37-2.4c-0.57-1.22-0.34-3.56-0.48-5.77c-0.36-5.64-0.67-11.09-2.16-16.86 c-0.67-2.59-1.84-4.88-2.65-7.38c-0.75-2.32-2.07-5.18-2.41-7.49c-0.51-3.42,2.71-3.61,4.77-5.1c3.19-2.29,5.69-3.56,9.13-5.63 c1.02-0.61,4.1-2.16,4.45-2.88c0.7-1.42-1.2-3.41-1.7-4.52c-0.8-1.76-1.22-3.25-1.33-4.98c-2.89-0.46-5.09-2.18-6.41-4.12 c-2.19-3.21-3.71-9.16-1.82-13.68c0.15-0.36,0.89-1.06,1-1.6c0.22-1.08-0.41-2.51-0.44-3.66c-0.2-5.88,0.99-10.94,4.95-12.72 c1.61-6.4,7.36-8.53,12.77-11.71c2.02-1.19,4.26-1.95,6.56-2.8c8.27-3.04,20.96-2.47,27.82,2.72c2.91,2.2,7.56,6.85,9.23,10.21 c4.39,8.88,4.08,23.73,1.01,34.54c-0.41,1.45-1.01,3.58-1.85,5.33c-0.58,1.22-2.4,3.65-2.18,4.73c0.23,1.11,4.13,4.08,4.97,4.89 c1.51,1.46,4.38,3.39,4.61,5.22c0.25,1.95-0.86,4.63-1.42,6.52C122.46,123.88,120.62,129.7,118.49,135.32"/><g><path d="M100.04,114.15c0,0,8.8,2.4,12.59-1.72c1.95-2.12,3.33-9.97,3.33-9.97l-4.64,2.25L100.04,114.15z" class="st17"/><path d="M95.09,117.21c-2.85,1.62-7.66,4.39-7.59,8.12c0.04,1.86,1.81,4.2,2.89,5.64 c1.07,1.42,3.04,1.92,3.76,3.57c2.13-1.5,2.33-1.21,4.25-5.52c0.88-1.97,1.53-4.75,0.82-6.81c-0.56-1.62-1.05-3.94-1.24-5.65 C97.23,116.91,95.8,116.8,95.09,117.21z" class="st17"/><path d="M95.88,118.17c-2.85,1.61-3.74,5.23-3.74,8.31c0.73-2,1.73-2.76,2.6-4.15c-0.22,1.62-0.39,3.6,0.61,5.03 c1.82-2.39,1.41,4.18,1.41,5.16c1.11-1.94,2.93-5.91,3.2-6.94c0.44-1.65-1.34-4.04-1.47-5.36c-0.13-1.25,0.1-1.43,0.18-2.72 C97.74,117.71,96.72,117.69,95.88,118.17z" class="st18"/><path d="M102.78,123.59c0.7,2.31,1.85,3.89,3.62,5.67c1.98,2.01,6.54,1.46,9.11,1.32 c-1.73-6.55-5.92-12.43-12.99-13.49C103.91,118.78,102.11,121.51,102.78,123.59z" class="st17"/><path d="M105.79,121.31c2.11,1.47,0.84,2.49,2.25,4.65c0.78,1.2,3.78,1.35,3.65,2.77 c-0.15,1.59,2.54,1.66,3.81,1.93c-0.57-2.99-1.75-5.67-3.5-8.02c-1.75-2.34-4.41-3.71-6.99-4.96 C105.52,118.32,105.29,120.67,105.79,121.31z" class="st18"/><path d="M95.87,116.89c-3.09,1.23-5.47,2.53-7.5,5.2c-2.32,3.03-0.71,5.23,1.28,7.91 c0.91,1.22,1.89,2.34,2.99,3.39c0.97,0.92,1.47,1.33,1.47,1.33s1.93-1.31,2.33-1.78c0.96-1.13,1.52-2.79,2.08-4.15 c0.53-1.28,1.56-2.88,1.5-4.26c-0.07-1.55-1.47-3.01-1.64-4.66c-0.07-0.6,0.34-2.11,0-2.53 C98.07,116.97,96.39,116.97,95.87,116.89z" class="st19"/><path d="M102.65,119.56c0,3.26,0.37,6.96,3.09,9.21c3.05,2.52,6.18,1.88,9.79,1.97 c-0.91-6.65-6.39-12.65-13.01-13.65C102.56,117.92,102.61,118.74,102.65,119.56z" class="st19"/><g><path d="M68.62,100.81c-1.6-0.02-0.42,1.04-1.13,2.29c-0.66,1.14-3.68,2.27-3.84,3.93 c-0.49,5.26,10.99,8.62,14.77,9.52c4.88,1.16,20.63-1.91,20.63-1.91s-10.55-2.97-14.25-4.44 C78.19,107.56,72.78,100.85,68.62,100.81z" class="st17"/><path d="M66.23,104.78c-0.13,0.22,0.52,0.96,0.63,1.13c0.38,0.59,0.65,1.24,1.07,1.81 c0.86,1.2,1.9,1.57,3.3,2.03c0.98,0.32,1.96,0.64,2.94,0.96c-0.75-1.5-1.4-3.01-2.38-4.4c-0.55-0.75-1.14-1.48-1.62-2.27 c-0.51-0.84-0.79-1.77-1.15-2.68c-0.17-0.42-0.24-0.57-0.57-0.2c-0.36,0.4-0.6,0.98-0.88,1.43 C67.12,103.32,66.72,104.09,66.23,104.78z" class="st18"/><g><path d="M68.66,102.75c0,0-0.05,0.14-0.13,0.39c-0.06,0.16-0.01,0.15-0.05,0.25c-0.04,0.07,0.01,0.25,0,0.4 c0.04,0.17,0.05,0.36,0.14,0.56c0.07,0.21,0.15,0.42,0.27,0.65c0.23,0.45,0.54,0.93,0.89,1.39c0.7,0.92,1.53,1.78,2.16,2.42 c0.63,0.64,1.04,1.07,1.04,1.07s-0.5-0.33-1.24-0.83c-0.75-0.5-1.75-1.17-2.68-1.97c-0.47-0.4-0.92-0.84-1.31-1.32 c-0.2-0.24-0.37-0.49-0.52-0.75c-0.16-0.25-0.27-0.53-0.38-0.78c-0.07-0.29-0.17-0.5-0.18-0.8 c-0.02-0.26-0.03-0.59-0.01-0.68c0.03-0.26,0.04-0.41,0.04-0.41L68.66,102.75z"/></g><path d="M80.18,109.74c0.9,0.92,1.89,1.78,2.94,2.48c2.28,1.53,4.8,1.93,7.49,2.05l8.42,0.37 c-4.88-1.42-9.64-2.81-14.32-4.81c-3.01-1.29-6.1-2.62-8.41-4.94c1.13,1.11,1.87,2.55,2.89,3.75 C79.51,109.01,79.84,109.38,80.18,109.74z" class="st18"/><path d="M68.62,100.81c-1.6-0.02-0.42,1.04-1.13,2.29c-0.66,1.14-3.68,2.27-3.84,3.93 c-0.49,5.26,10.99,8.62,14.77,9.52c4.88,1.16,20.63-1.91,20.63-1.91s-10.55-2.97-14.25-4.44c-2.4-0.96-4.65-2.46-6.74-3.98 C74.41,103.56,71.26,100.83,68.62,100.81z" class="st20"/></g><path d="M102.51,112.39c1.06,0,2.12,0,3.18,0c1.84,0,3.31-0.57,4.81-1.71c1.93-1.46,2.25-3.44,3.42-5.36 c0.7-1.16,0.87-1.42,1.58-2.58l-4.19,1.96L102.51,112.39z" class="st18"/><path d="M100.04,114.15c0,0,8.8,2.4,12.59-1.72c1.24-1.35,1.74-3.51,2.22-5.23c0.43-1.57,1.08-3.12,1.12-4.75 c-0.59,0.1-1.25,0.34-1.79,0.65c-3.95,2.3-7.24,5.27-10.71,8.18C103.02,111.66,100.48,114.27,100.04,114.15z" class="st20"/><path d="M102.11,113.71c-0.09-2.26-4.45-4.71-5.95,0.1c-1.81,5.83,4.52,6.4,6.26,5.14 C104.45,117.48,102.18,115.46,102.11,113.71z" class="st17"/><path d="M98.29,119.04c1.29-0.05,0.71-1.95,1.33-3.16c0.55-1.07,1.09-2.03,2.49-2.16 c-0.83,1.67,2.08,3.15,1.32,4.6C102.7,119.72,99.61,118.99,98.29,119.04z" class="st18"/><path d="M102.11,113.71c-1.43-1.87-2.7-3.94-4.62-1.63c-1.34,1.61-2.65,3.96-1.22,6c0.87,1.24,4.7,1.29,6.17,0.87 C105.38,118.1,100.87,115.7,102.11,113.71z" class="st19"/><g><path d="M97.8,118.72c0,0-0.12,0.26-0.29,0.66c-0.18,0.4-0.42,0.93-0.7,1.45c-0.54,1.05-1.29,1.91-1.29,1.91 s0.3-1.1,0.33-2.19c0.03-0.55,0.02-1.09,0.01-1.51c-0.01-0.42-0.02-0.7-0.02-0.7L97.8,118.72z"/></g><g><path d="M96.82,118.76c0,0-0.31,0.2-0.79,0.5c-0.46,0.3-1.04,0.73-1.56,1.24c-0.52,0.51-0.97,1.12-1.27,1.6 c-0.3,0.49-0.48,0.83-0.48,0.83s0.06-0.38,0.19-0.95c0.13-0.57,0.37-1.33,0.74-2.06c0.37-0.73,0.84-1.41,1.21-1.89 c0.38-0.47,0.63-0.78,0.63-0.78L96.82,118.76z"/></g><g><path d="M104.06,117.13c0,0,0.31,0.25,0.78,0.62c0.47,0.39,1.08,0.94,1.6,1.57c0.52,0.63,0.92,1.32,1.18,1.85 c0.26,0.53,0.39,0.89,0.39,0.89s-0.25-0.3-0.65-0.71c-0.4-0.41-0.97-0.9-1.59-1.28c-0.62-0.39-1.28-0.67-1.8-0.87 c-0.53-0.19-0.88-0.31-0.88-0.31L104.06,117.13z"/></g><g><path d="M104.5,118.04c0,0,0,0.21,0,0.53c0,0.31,0,0.72,0.04,1.13c0.05,0.82,0.33,1.64,0.33,1.64s-0.69-0.53-1.25-1.26 c-0.28-0.36-0.54-0.73-0.73-1.01c-0.18-0.28-0.3-0.46-0.3-0.46L104.5,118.04z"/></g><g><path d="M95.46,115.71c0,0-0.07-0.03-0.2-0.1c-0.1-0.05-0.25-0.12-0.47-0.21c-0.43-0.17-1.04-0.37-1.65-0.55 c-0.62-0.18-1.24-0.34-1.72-0.45c-0.47-0.11-0.8-0.15-0.8-0.15s0.32-0.08,0.8-0.16c0.49-0.08,1.14-0.17,1.8-0.24 c0.66-0.07,1.33-0.11,1.84-0.12c0.25-0.01,0.5,0,0.67,0.02c0.14,0.01,0.22,0.01,0.22,0.01L95.46,115.71z"/></g><g><path d="M101.6,112.85c0,0,0.3-0.11,0.76-0.28c0.46-0.17,1.09-0.4,1.73-0.6c0.64-0.2,1.29-0.36,1.78-0.44 c0.49-0.08,0.82-0.09,0.82-0.09s-0.3,0.13-0.71,0.38c-0.41,0.25-0.93,0.62-1.42,1.03c-0.49,0.4-0.96,0.84-1.33,1.16 c-0.37,0.33-0.61,0.55-0.61,0.55L101.6,112.85z"/></g><g><path d="M102.24,113.06c0,0,0.06,0.02,0.16,0.05c0.05,0.02,0.13,0.06,0.3,0.09c0.32,0.05,0.8,0.09,1.29,0.1 c0.98,0.02,1.98,0,1.98,0s-0.85,0.5-1.75,0.97c-0.45,0.24-0.91,0.46-1.31,0.6c-0.18,0.07-0.41,0.12-0.57,0.15 c-0.11,0.02-0.17,0.04-0.17,0.04L102.24,113.06z"/></g><g><path d="M67.49,104.14c0,0-0.01,0.24-0.02,0.6c-0.02,0.34-0.05,0.78-0.08,1.23c-0.02,0.44-0.01,0.88,0.04,1.2 c0.05,0.33,0.13,0.54,0.13,0.54s-0.19-0.13-0.42-0.41c-0.23-0.27-0.49-0.67-0.73-1.09c-0.22-0.41-0.44-0.82-0.61-1.13 c-0.16-0.28-0.27-0.47-0.27-0.47L67.49,104.14z"/></g></g><g><path d="M51.84,81.54c0,0,0.3-0.83,0.85-2.12c0.54-1.27,1.35-2.94,2.39-4.47c1.04-1.53,2.29-2.87,3.29-3.79 c1-0.92,1.71-1.47,1.71-1.47s-0.63,0.65-1.48,1.69c-0.85,1.04-1.88,2.5-2.65,4.08c-0.78,1.58-1.31,3.25-1.66,4.52 c-0.34,1.26-0.53,2.15-0.53,2.15L51.84,81.54z"/></g><g><path d="M50.89,80.65c0,0,0.07-0.36,0.17-0.9c0.11-0.55,0.31-1.28,0.6-1.98c0.29-0.69,0.68-1.32,1-1.75 c0.32-0.43,0.55-0.7,0.55-0.7s-0.13,0.33-0.27,0.83c-0.15,0.5-0.28,1.18-0.31,1.84c-0.03,0.66,0.04,1.32,0.11,1.82 c0.09,0.5,0.14,0.84,0.14,0.84L50.89,80.65z"/></g><path d="M107.82,92.04c0.79-0.89,2.19-0.69,3.25-0.46c0.89,0.19,1.48,1.02,2.36,1.21c0.44,0.1,1.39,0.04,1.31-0.62 c-0.06-0.49-0.4-0.77-0.87-0.85c-0.15,0.07-0.23,0.13-0.35,0.25c0.12-0.13,0.1-0.31,0.3-0.41c0.56-0.3,1.29,0.22,1.53,0.71 c0.25,0.52,0.23,1-0.03,1.51c-0.47,0.92-1.59,1.32-2.55,1.46c-1.08,0.16-2.23,0.16-3.3-0.17c-0.15-0.04-1.74-0.83-1.63-1.01 c-0.12,0.2-0.21,0.44-0.35,0.63c-0.8,1.05-2.24,1.31-3.46,1.55c-1.27,0.25-2.59,0.29-3.88,0.1c-1.14-0.17-2.4-0.5-3.26-1.32 c-0.97-0.92-1.09-2.58-0.23-3.61c0.28-0.33,0.69-0.51,1.11-0.54c0.42-0.03,0.66,0.09,1,0.31c-0.36-0.23-0.94-0.11-1.2,0.21 c-0.24,0.31-0.41,0.78-0.39,1.17c0.01,0.2,0.08,0.41,0.22,0.56c0.47,0.49,1.29,0.25,1.84,0.07c1.14-0.37,2.22-0.91,3.38-1.25 c0.98-0.29,2.03-0.46,3.06-0.39c0.47,0.03,0.97,0.1,1.4,0.32C107.17,91.51,107.92,91.92,107.82,92.04z"/></g><g><path d="M68.31,76.99c0.03-0.05,4.31-4.34,6.78-6.06c3.79-2.64,4.33-9.87,8.69-11.65 c4.36-1.78,10.01-4.09,14.69-4.44c6.4-0.47,12.91,1.39,19.26,0.39c0.37-0.06,1.87-3.56,2.12-4.1 c5.21-11.31-6.98-22.5-18.08-23.55c-4.95-0.47-10.02-0.63-14.81,0.71c-5.67,1.58-10.93,4.4-15.77,7.72 c-4.72,3.25-8.19,6.26-11.08,11.29c-2.8,4.88-5.45,8.44-8.78,13.07c-1.16,1.61-2.5,3.12-3.36,4.91 c-1.24,2.58-1.51,5.88-1.17,8.7c0.21,1.77,0.7,3.66,2.18,4.79c0.7,0.54,1.5,0.74,2.34,0.98c2.04,0.57,0.85,0.39,1.81,1.97 c1.14,1.88,4.96,2.6,6.8,1.66c0.63-0.32,1.13-0.84,1.57-1.39C63.85,79.07,66.31,80.02,68.31,76.99z" class="st17"/><path d="M53.01,60.47c0.77-0.45,1.65-0.94,1.76-0.99c0.91-0.4,2-0.39,2.89-0.81c0.77-0.37,1.07-1.18,1.22-1.97 c0.16-0.85-0.07-2,0.58-2.69c0.17-0.18,0.38-0.3,0.61-0.39c0.5-0.21,0.72-0.8,0.48-1.28c-0.32-0.62-0.76-1.66-1.47-1.91 c-0.95-0.33-1.36,1.08-1.77,1.66c-0.32,0.45-0.78,0.8-1.07,1.28c-0.45,0.73-0.51,1.62-1.01,2.34c-0.53,0.76-1.28,1.33-1.98,1.92 c-0.5,0.42-1.13,0.94-1.51,1.54c-0.53,0.83,0.4,1.81,1.25,1.32C52.99,60.48,53,60.47,53.01,60.47z" class="st18"/><path d="M57.19,53.43c-6.23,18.73,6.3,8.03,6.16,13.42c-0.22,8.55,4.74,1.16,8.46-5.72 c3.61-6.68,23.15-9.46,29.16-9.62c13.78-0.37,8.98-10.74,13.01-6.96c4.97,4.66,4.63-2.15,4.67-7.43 c2.78,3.62,6.28,10.64-0.87,17.96c-0.19,0.19-8.68,0.33-9.45,0.18c-8.64-1.67-16.75,0.53-24.55,4.02 c-6.91,3.1-6.1,7.89-11.6,14.73c-2.82,3.5-8.71,6.03-13.61,8.89c-1.28,0.74-3.34,0.38-4.33-0.94c-0.23-0.31-0.77-0.17-1.11-0.36 c-0.78-0.45-1.15-1.4-1.91-1.89c-0.47-0.3-1.13-0.25-1.54-0.62C40.71,70.95,57.81,51.56,57.19,53.43z" class="st18"/><path d="M58.84,52.43c-1.41-2.48-3.26-5.04-5.84-6.47c-0.78-0.43-6.52-2.11-6.26-0.68 c0.45,2.49,1.58,5.34,3.97,6.31c3.48,1.41,4.51,0.1,8.15,0.88C58.86,52.45,58.85,52.44,58.84,52.43z" class="st17"/><path d="M52.16,49.62c2.09,0.04,3.67,0.85,5.61,1.58c-1.64,0.68-2.93,1.27-4.75,1c-3.47-0.5-5.56-1.64-5.17-5.24 C47.85,46.95,50.32,49.58,52.16,49.62z" class="st18"/><g><path d="M52.14,80.17c0,0,0.35-0.81,0.98-2.06c0.62-1.23,1.53-2.85,2.66-4.31c1.13-1.46,2.46-2.72,3.52-3.57 c1.05-0.86,1.8-1.36,1.8-1.36s-0.67,0.61-1.58,1.59c-0.92,0.98-2.03,2.38-2.9,3.9c-0.87,1.53-1.52,3.16-1.94,4.41 c-0.42,1.23-0.66,2.11-0.66,2.11L52.14,80.17z"/></g><g><path d="M51.25,79.22c0,0,0.09-0.36,0.23-0.89c0.15-0.54,0.39-1.26,0.72-1.94c0.34-0.67,0.76-1.27,1.11-1.68 c0.35-0.41,0.6-0.66,0.6-0.66s-0.15,0.32-0.32,0.82c-0.18,0.49-0.36,1.16-0.43,1.82c-0.07,0.66-0.04,1.32,0,1.82 c0.05,0.51,0.09,0.84,0.09,0.84L51.25,79.22z"/></g><g><path d="M116.3,55.01c0,0-0.08-0.2-0.2-0.49c-0.12-0.29-0.28-0.67-0.47-1.03c-0.36-0.74-0.94-1.39-0.94-1.39 s0.84,0.22,1.64,0.68c0.4,0.22,0.78,0.47,1.06,0.65c0.27,0.19,0.46,0.31,0.46,0.31L116.3,55.01z"/></g><g><path d="M117.27,54.62c0,0-0.04-0.13-0.1-0.36c-0.07-0.23-0.14-0.51-0.27-0.89c-0.25-0.75-0.65-1.74-1.11-2.73 c-0.91-1.97-1.97-3.9-1.97-3.9s1.46,1.63,2.82,3.38c0.68,0.88,1.33,1.79,1.78,2.52c0.22,0.35,0.42,0.71,0.53,0.91 c0.11,0.21,0.18,0.33,0.18,0.33L117.27,54.62z"/></g><path d="M58.84,52.43c-1.41-2.48-3.26-5.04-5.84-6.47c-0.78-0.43-6.52-2.11-6.26-0.68 c0.45,2.49,1.58,5.34,3.97,6.31c3.48,1.41,4.51,0.1,8.15,0.88C58.86,52.45,58.85,52.44,58.84,52.43z" class="st20"/><path d="M71.57,75.17c5.52-4.75,8.08-14.44,12.45-16.22c4.36-1.78,10.01-4.09,14.69-4.44 c6.4-0.47,12.91,1.39,19.26,0.39c0.37-0.06,1.87-3.56,2.12-4.1c5.21-11.31-6.98-22.5-18.08-23.55 c-4.95-0.47-10.02-0.63-14.81,0.71c-5.67,1.58-10.93,4.4-15.77,7.72c-4.72,3.25-8.19,6.26-11.08,11.29 c-2.8,4.88-5.45,8.44-8.78,13.07c-1.16,1.61-2.5,3.12-3.36,4.91c-1.24,2.58-1.51,5.88-1.17,8.7c0.21,1.77,0.7,3.66,2.18,4.79 c0.7,0.54,1.5,0.74,2.34,0.98c2.04,0.57,0.85,0.39,1.81,1.97c1.14,1.88,4.96,2.6,6.8,1.66c0.63-0.32,1.13-0.84,1.57-1.39 C64.09,78.75,69.38,77.06,71.57,75.17z" class="st21"/></g></g></g></switch></svg>