<svg xmlns="http://www.w3.org/2000/svg" xmlns:xlink="http://www.w3.org/1999/xlink" width="127" height="142" viewBox="0 0 127 142"><title>Bitnami-Logo-Full-Color</title><defs><path id="bma" d="M7.244 76.155C2.72 73.543.304 70.957.304 65.835v-58.3c0-2.664.71-5.061 1.858-7.09l24.537 14.1V87.39L7.244 76.155z"/><linearGradient id="c" x1="18.01%" x2="77.804%" y1="80.098%" y2="28.779%"><stop offset="0%" stop-color="#00437C"/><stop offset="100%" stop-color="#093266"/></linearGradient><path id="d" d="M8.741 48.056L.453 43.271V12.79l15.349 8.861L52.318.571V.436l24.635 14.156c-1.188 2.158-2.96 3.944-5.292 5.29L22.878 48.047a14.114 14.114 0 0 1-7.075 1.917 14.11 14.11 0 0 1-7.062-1.908"/><linearGradient id="f" x1="0%" y1="50%" y2="50%"><stop offset="0%" stop-color="#00437C"/><stop offset="100%" stop-color="#3984B5"/></linearGradient></defs><g fill="none" fill-rule="evenodd"><path fill="#00577B" d="M79.05 62.437L63.724 53.59l-15.326 8.848 15.326 8.935z"/><path fill="#1E384B" d="M63.724 88.989l15.326-8.851v-17.7l-15.326 8.85z"/><path fill="#15211F" d="M63.724 88.989l-15.326-8.851v-17.7l15.326 8.85z"/><path fill="#00437C" fill-rule="nonzero" d="M100.24 50.419V92.45l-36.516 21.083-36.52-21.083v-.063l-24.536 14.1c1.286 2.27 3.121 4.075 5.153 5.249 16.194 9.348 32.385 18.699 48.58 28.047 4.753 2.745 9.868 2.758 14.594.03l48.698-28.117c4.546-2.624 6.943-6.789 6.943-12.085v-56.03c0-2.756-.602-5.214-1.761-7.32L100.24 50.42z"/><g><g transform="matrix(1 0 0 -1 .506 106.933)"><mask id="bmb" fill="#fff"><use xlink:href="#bma"/></mask><g fill="url(#c)" fill-rule="nonzero" mask="url(#bmb)"><path d="M7.244 76.155C2.72 73.543.304 70.957.304 65.835v-58.3c0-2.664.71-5.061 1.858-7.09l24.537 14.1V87.39L7.244 76.155z"/></g></g></g><g><g transform="matrix(1 0 0 -1 47.922 50.854)"><mask id="e" fill="#fff"><use xlink:href="#d"/></mask><g fill="url(#f)" fill-rule="nonzero" mask="url(#e)"><path d="M8.741 48.056L.453 43.271V12.79l15.349 8.861L52.318.571V.436l24.635 14.156c-1.188 2.158-2.96 3.944-5.292 5.29L22.878 48.047a14.114 14.114 0 0 1-7.075 1.917 14.11 14.11 0 0 1-7.062-1.908"/></g></g></g></g></svg>